<svg id="adobexd" xmlns="http://www.w3.org/2000/svg" width="157.59" height="153.65" viewBox="0 0 157.59 153.65">
  <path id="Path_6" data-name="Path 6" d="M10,10H154.457V150.517H10Z" transform="translate(-3.434 -3.434)" fill="#2e001e"/>
  <path id="Path_7" data-name="Path 7" d="M0,0V153.65H157.59V0ZM6.566,6.566H151.023V147.084H6.566Z" fill="#ff2bc2"/>
  <path id="Path_8" data-name="Path 8" d="M129.972,83.6a9.016,9.016,0,0,0-3.808-.657c-8.273,0-13.789,6.369-13.789,16.941,0,12.082,5.647,16.941,13,16.941a12.388,12.388,0,0,0,4.531-.722V83.6Zm-29.417,16.81c0-15.3,9.849-27.25,26-27.25a29.119,29.119,0,0,1,3.414.131V56.222a.658.658,0,0,1,.657-.657H141.2c.525,0,.657.2.657.525v60.015a46.768,46.768,0,0,0,.328,6.435c0,.46,0,.525-.394.722a39.113,39.113,0,0,1-16.81,3.808c-14.249,0-24.426-8.8-24.426-26.659ZM78.165,89.776,96.55,125.43c.328.525.131,1.051-.394,1.051H84.731a1.289,1.289,0,0,1-1.379-.854q-6.3-13-12.87-26.987h-.131c-3.94,8.8-8.273,18.385-12.476,27.053a1.261,1.261,0,0,1-1.182.722h-10.9c-.657,0-.722-.525-.394-.919l17.991-34.6L45.99,56.485a.581.581,0,0,1,.46-.985H57.744c.657,0,.985.131,1.182.722,4.137,8.733,8.339,17.335,12.279,26.134h.131c3.808-8.667,8.011-17.4,12.016-26,.328-.525.525-.854,1.182-.854H95.106c.525,0,.722.394.394.985L78.165,89.776Z" transform="translate(-15.523 -19.057)" fill="#ff2bc2"/>
</svg>
