<svg id="bootstrap" xmlns="http://www.w3.org/2000/svg" width="156.265" height="156.265" viewBox="0 0 156.265 156.265">
  <path id="Path_9" data-name="Path 9" d="M0,136.116a20.149,20.149,0,0,0,20.149,20.149H136.115a20.149,20.149,0,0,0,20.15-20.149V20.15A20.149,20.149,0,0,0,136.116,0H20.15A20.149,20.149,0,0,0,0,20.149V136.115Z" fill="#563d7c"/>
  <path id="Path_10" data-name="Path 10" d="M92.88,88.8V66.667h19.479a30.3,30.3,0,0,1,5.367.464,13.4,13.4,0,0,1,4.572,1.656,8.833,8.833,0,0,1,3.18,3.313,11,11,0,0,1,1.193,5.433q0,5.963-3.578,8.613a14.954,14.954,0,0,1-9.143,2.65H92.88Zm-20.8-38.3v94.613h45.849a48.372,48.372,0,0,0,12.39-1.59,33.137,33.137,0,0,0,10.733-4.9,24.15,24.15,0,0,0,7.487-8.547,26.035,26.035,0,0,0,2.783-12.39,26.217,26.217,0,0,0-4.306-15.172Q142.7,96.216,133.958,93.7a23.582,23.582,0,0,0,9.608-7.818,20.726,20.726,0,0,0,3.246-11.926,25.379,25.379,0,0,0-2.186-11.131,18.183,18.183,0,0,0-6.162-7.222,26.6,26.6,0,0,0-9.541-3.909A58.9,58.9,0,0,0,116.6,50.5Zm20.8,78.447V102.974h22.659q6.758,0,10.867,3.114t4.108,10.4a13,13,0,0,1-1.259,6.1,10,10,0,0,1-3.379,3.777,14.31,14.31,0,0,1-4.9,1.988,27.818,27.818,0,0,1-5.831.6H92.88Z" transform="translate(-28.08 -19.674)" fill="#fff"/>
</svg>
