<svg xmlns="http://www.w3.org/2000/svg" width="111.147" height="153.65" viewBox="0 0 111.147 153.65">
  <g id="corel" transform="translate(-1080.085 -2448)">
    <path id="Path_36" data-name="Path 36" d="M1110.3,1367.126l3.383,13.534h16.248l3.157-13.76Z" transform="translate(13.552 1220.99)" fill="#61a706" fill-rule="evenodd"/>
    <path id="Path_37" data-name="Path 37" d="M1062.528,144.981l.617,1.913.391.854,3.918.021.463-.226.566-1.337c2.417-6.222,8.762-32.774,10.078-39.551,3.579-18.387,6.263-37.124,4.957-55.9-.494-7.1-1.83-15.025-4.484-21.658-2.026-5.09-5.07-10.921-10.428-13.184-5.821-2.458-11.436,3.507-13.945,8.34-13.317,25.658-4.813,69.909,1.409,96.143l2.1,9c1.378,5.214,2.941,9.842,4.36,15.59Z" transform="translate(69.798 2433.561)" fill="#979797" fill-rule="evenodd"/>
    <path id="Path_38" data-name="Path 38" d="M828.745,138.438l-2.314-1.9c-27.643-25.956-65.549-113.225-5.8-129.319a11.945,11.945,0,0,1,4.288-.617c-46.945,20.228-15.271,99.095,3.826,131.838Z" transform="translate(301.916 2441.4)" fill="#979797" fill-rule="evenodd"/>
    <path id="Path_39" data-name="Path 39" d="M1273.7,138.438l2.314-1.9c27.643-25.956,65.549-113.225,5.8-129.319a11.945,11.945,0,0,0-4.288-.617c46.946,20.228,15.282,99.095-3.826,131.838Z" transform="translate(-133.044 2441.4)" fill="#979797" fill-rule="evenodd"/>
    <path id="Path_40" data-name="Path 40" d="M707.88,74a41.085,41.085,0,0,0-22.727,30.234l-.453,5.471.051,4.4.617,4.854.339,2.314c4.628,25.473,25.792,58.864,44.416,76.563C704.373,163.479,665.51,109.129,707.88,74Z" transform="translate(395.385 2380.931)" fill="#979797" fill-rule="evenodd"/>
    <path id="Path_41" data-name="Path 41" d="M1345.954,74a41.084,41.084,0,0,1,22.727,30.234l.453,5.471-.062,4.4-.617,4.854-.339,2.314c-4.628,25.473-25.792,58.864-44.416,76.563,25.761-34.358,64.623-88.708,22.254-123.837Z" transform="translate(-177.902 2380.931)" fill="#979797" fill-rule="evenodd"/>
  </g>
</svg>
