<svg xmlns="http://www.w3.org/2000/svg" width="110.708" height="156.265" viewBox="0 0 110.708 156.265">
  <g id="css3" transform="translate(-0.445)">
    <path id="Path_42"  data-name="Path 42" d="M55.731,196.321,10.52,183.77.445,70.766H111.153L101.067,183.753,55.731,196.321Z" transform="translate(0 -40.056)" fill="#264de4"/>
    <path id="Path_43" data-name="Path 43" d="M164.634,188.609l8.618-96.552H128V198.765l36.634-10.156Z" transform="translate(-72.201 -52.108)" fill="#2965f1"/>
    <path id="Path_44" data-name="Path 44" d="M50.413,152.047l1.242,13.859H82.67V152.047ZM47.917,124l1.26,13.859H82.67V124ZM82.67,188.041l-.061.016L67.174,183.89l-.987-11.053H52.274L54.216,194.6l28.39,7.881.064-.017Z" transform="translate(-26.871 -70.186)" fill="#ebebeb"/>
    <path id="Path_45" data-name="Path 45" d="M60.484,0H77.27V7.02H67.5v7.02h9.767v7.019H60.484ZM80.627,0H97.413V6.1H87.647V7.325h9.766v14.04H80.628v-6.41h9.766V13.734H80.627V0Zm20.144,0h16.786V6.1h-9.766V7.325h9.766v14.04H100.771v-6.41h9.766V13.734h-9.766V0Z" transform="translate(-33.984)" fill="#efefef"/>
    <path id="Path_46" data-name="Path 46" d="M160.106,152.047l2.5-28.052H127.889v13.859h19.529l-1.261,14.192H127.889v13.859h17.066l-1.609,17.975-15.458,4.172v14.419L156.3,194.6l.208-2.342,3.257-36.488Z" transform="translate(-72.138 -70.186)" fill="#fff"/>
  </g>
</svg>
