<svg id="Layer_1" data-name="Layer 1" xmlns="http://www.w3.org/2000/svg" viewBox="0 0 185.38 132.9"><defs><style>.cls-1{fill:#4d0000;fill-rule:evenodd;}</style></defs><title>DM</title><path class="cls-1" d="M103.42,44l-2.56-2.56A10.89,10.89,0,1,0,103.42,44M46.24,48.51,77.1,17.66,90.4,31a19.77,19.77,0,1,0,19.7,7.12l0,0-.28-.29c-.41-.5-.85-1-1.32-1.45s-1-.91-1.46-1.32L83.42,11.34,92.75,2l46.51,46.51L92.75,95Z" transform="translate(0 -2)"/><polygon class="cls-1" points="0 111.27 10.94 122.21 46.51 86.64 89.58 129.71 89.51 129.71 92.64 132.9 96 129.71 95.93 129.71 138.94 86.7 174.45 122.2 185.38 111.27 138.94 64.77 92.75 110.96 46.51 64.76 0 111.27"/></svg>