<?xml version="1.0" encoding="utf-8"?>
<!-- Generator: Adobe Illustrator 23.0.0, SVG Export Plug-In . SVG Version: 6.00 Build 0)  -->
<svg version="1.1" id="adobexd" xmlns="http://www.w3.org/2000/svg" xmlns:xlink="http://www.w3.org/1999/xlink" x="0px" y="0px"
	 viewBox="0 0 157.6 153.6" style="enable-background:new 0 0 157.6 153.6;" xml:space="preserve">
<style type="text/css">
	.st0{fill:#E64A19;}
	.st1{fill:#7C4DFF;}
	.st2{fill:#66BB6A;}
	.st3{fill:#FF7043;}
	.st4{fill:#29B6F6;}
</style>
<g>
	<path class="st0" d="M82.5,51.2H53.2c-14.1,0-25.6-11.5-25.6-25.6l0,0C27.6,11.5,39,0,53.2,0h29.3V51.2z"/>
	<path class="st1" d="M78.8,102.4H53.2C39,102.4,27.6,91,27.6,76.8l0,0c0-14.1,11.5-25.6,25.6-25.6h25.6V102.4z"/>
	<path class="st2" d="M53.2,153.6L53.2,153.6c-14.1,0-25.6-11.5-25.6-25.6l0,0c0-14.1,11.5-25.6,25.6-25.6h25.6V128
		C78.8,142.2,67.3,153.6,53.2,153.6z"/>
	<path class="st3" d="M104.4,51.2H78.8V0h25.6C118.5,0,130,11.5,130,25.6l0,0C130,39.8,118.5,51.2,104.4,51.2z"/>
	<circle class="st4" cx="104.4" cy="76.8" r="25.6"/>
</g>
</svg>
