<svg xmlns="http://www.w3.org/2000/svg" width="105.537" height="144.881" viewBox="0 0 105.537 144.881">
  <g id="firebase" transform="translate(-10714 -1910)">
    <path id="Path_63" data-name="Path 63" d="M0,116.943l.877-1.228,41.49-78.726.088-.833L24.166,1.8a3.394,3.394,0,0,0-6.35,1.072Z" transform="translate(10714 1910)" fill="#ffc24a"/>
    <path id="Path_64" data-name="Path 64" d="M1.253,116.77l.663-1.294,41.055-77.9L24.728,3.081a3.082,3.082,0,0,0-5.864,1.066Z" transform="translate(10713.265 1909.236)" fill="#ffa712"/>
    <path id="Path_66" data-name="Path 66" d="M115.885,91.025,129.5,77.079l-13.622-26a3.509,3.509,0,0,0-6.183,0L102.42,64.954v1.182l13.465,24.89Z" transform="translate(10653.903 1881.116)" fill="#f4bd62"/>
    <path id="Path_67" data-name="Path 67" d="M115.829,91.192l13.239-13.559-13.239-25.21c-1.257-2.393-4.311-2.644-5.555-.244l-7.316,14.095-.219.721Z" transform="translate(10653.716 1880.369)" fill="#ffa50e"/>
    <path id="Path_69" data-name="Path 69" d="M0,168.054l.4-.4,1.445-.587,53.09-52.893.673-1.831L42.361,87.1Z" transform="translate(10714 1858.889)" fill="#f6820c"/>
    <path id="Path_70" data-name="Path 70" d="M57.489,185.589l48.048-26.8-13.721-84.5A3.284,3.284,0,0,0,86.251,72.5L0,158.914l47.773,26.673a9.97,9.97,0,0,0,9.716,0" transform="translate(10714 1868.029)" fill="#fde068"/>
    <path id="Path_71" data-name="Path 71" d="M105.863,159.14,92.247,75.278c-.426-2.624-3.123-3.71-5-1.828L1.29,159.321,48.538,185.73a9.894,9.894,0,0,0,9.642,0l47.683-26.593Z" transform="translate(10713.243 1867.457)" fill="#fcca3f"/>
  </g>
</svg>
