<svg xmlns="http://www.w3.org/2000/svg" width="98.095" height="126" viewBox="0 0 98.095 126">
  <path id="flask" d="M29.314,77.921c-3.736-2.939-7.722-5.755-10.446-9.724A78.907,78.907,0,0,1,5.706,44.583C3.882,39.046,3.257,33.11.9,27.788c-2.458-3.867.423-8.091,4.658-9.319,1.884-.363,5.2-2.142,1.2-.869-3.588,2.631-3.934-2.391-.255-2.709C9.016,14.558,9.94,12.5,9.08,10.655c-2.7-1.759,6.535-3.689,1.89-6.312-4.836-5.219,6.767-6.224,3.9-.3-.684,4.558,8.11-.837,6.068,4.427C23.017,11,28.71,9.051,28.567,12.6c3.022.208,4.059,2.749,6.893,2.944,2.942,1.328,8.269,2.373,9.268,5.685-2.916,2.308-9.667-4.768-9.993,1.622.882,9.441.657,19.166,4.11,28.155,1.633,5.443,5.594,9.727,9.17,13.967,3.423,4.151,8.058,7.076,12.784,9.536a52.738,52.738,0,0,0,13.13,4.064c1.832-1.4,5.066-6.61,7.922-4.415.138,2.471-5.67,5.162-.272,4.889,3.172-.957,5.37,2.45,7.98-.624,2.406,2.849,10-1.819,8.286,4-2.315,1.494-5.69.591-8.008,2.646-3.821-1.909-6.864,1.706-11.1,1.25A81.487,81.487,0,0,1,64.5,87.507c-7.815-.617-15.8-.877-23.23-3.6a47.084,47.084,0,0,1-11.957-5.988Zm6.6,2.862C40,82.549,44,84.413,48.485,84.977c7.111.987,14.455,2.511,21.591,1.123-3.229-1.458-6.57.566-9.787-1.042-3.859.829-8-.213-11.925-.727-4.46-1.986-9.275-3.352-13.452-5.934-5.222-1.906,2.7,2.446,4.109,2.8,3.262,1.851-3.588-.95-4.556-1.719-2.733-1.534-3.081-1.213-.27.343.566.331,1.125.679,1.719.962Zm-7.782-5.5c3.964,1.468-.018-2.786-1.832-2.54-.8-1.4-3.074-2.278-1.473-3.027-2.879,1-3.017-3.8-4.369-3.114-3.047-.962-1.186-4.37-4.816-6.464-.331-2.206-3.606-4.117-4.648-7.443-.461-1.7-3.7-6.592-1.711-2.042,1.694,4.38,4.673,8.134,7.154,11.88,1.924,3.567,4.2,7.3,7.705,9.524,1.183,1.135,2.322,2.871,3.991,3.227ZM16.716,62.747C16.853,62.148,17.44,64.042,16.716,62.747ZM32.879,77.041C33.756,76.648,31.617,76.545,32.879,77.041Zm2.15.785C34.806,76.743,34.047,78.432,35.029,77.826Zm2.694,1.123C39,77.728,35.746,78.179,37.723,78.949Zm4.615,2.572C43.117,80.371,39.845,81.088,42.338,81.521Zm-8.862-6.178C35.465,74.055,30.9,75.325,33.476,75.343ZM35.5,76.35C35.438,75.671,34.776,76.655,35.5,76.35Zm10.095,6.3c1.624,1.025,9.479,2.245,4.561.421C49.326,83.245,41.03,80.724,45.59,82.651ZM29.565,70.169C29.407,69.488,27.043,69.414,29.565,70.169Zm4.7,2.742C35.487,72.056,31.724,72.251,34.262,72.91Zm3.954,2.423C39.973,74.672,35.37,74.669,38.216,75.333ZM27.65,68.086c1.9,1.46,7.683.188,2.916-.872-2.167-1.155-7.053-1.947-3.723.7ZM40.9,76.17C41.689,74.819,37.567,75.4,40.9,76.17Zm-4.025-3.2c4.656,1.316-3.916-2.947-1.15-.486l.614.278Zm8.069,4.663C49.349,77.677,40.955,77.027,44.94,77.635Zm-18.986-12.1C25.781,64.714,24.867,65.6,25.954,65.535ZM52.4,81.82C52.516,80.337,50.96,82.925,52.4,81.82ZM33.481,70.143C33.213,69.362,32.1,70.111,33.481,70.143Zm-7.109-5.124C28.9,64.867,22.9,63.9,26.372,65.019Zm-8.422-5.443C17.635,58.362,15.2,57.395,17.951,59.577Zm22.108,14.03C39.595,73.077,39.84,73.721,40.058,73.606Zm13.758,8.444C53.774,81.241,53.067,82.356,53.817,82.051Zm-14.976-9.7C39.089,71.306,36.681,72.032,38.841,72.348Zm-10.251-6.5C30.474,65.65,25.57,64.578,28.59,65.851ZM45.93,76.626C48.866,75.463,43.068,76.059,45.93,76.626ZM36.911,70.5c3.382.435-4.026-2.3-.744-.246Zm11.756,7.228c3.16-1.886,2.118,4.423,5.36.534,3.2-2.335-2.762,2.887,1.178.416,2.851-1.907,7.061.9,9.719,1.819,1.911-.093,3.771,1.654,5.732.591,3.774-1.017-7.381-1.508-4.458-3.31-3.452,1.005-6-1.2-7.7-3.41-3.874-.895-8.351-2.874-10.286-6.3-.789-1.285,1.138.183-.681-1.922-2.333-2.075-3.5-4.433-5.064-6.956-1.872-1-2.092-3.936-2.28-.1.015-2.423-2.26-4.054-2.816-3.378-.01-2.333,2.436-1.163.724-2.889-.368-2.418-1.581-4.938-1.945-7.67-.566-1.315-.08-4.134-1.934-1.155-.674,3.15-.223-3.869.827-1.556,1.378-2.36-.5-2.083-.572-1.757.9-1.992.569-4.819-.235-3.741.479-2.112.757-7.772-.714-6.768.892-2.21,1.691-10.108-2.183-7.1a16.446,16.446,0,0,0-5.57,1.208c4.026,2.22-.406.8-2.047.448-.213,2.055-1.837,1.168-3.866,1.187,3.242.4-1.579,3.315-3.435,2.183-2.416,1.153,2.082,4.034.048,4.926.251,1.341-3.7-.485-3.39,2.616-2.343-.988-.321,3.678.852,2.1,3.987,1.08,2.806,3.538,2.906,5.875-.649,1.36-3.207-3.2-.569-2.989-2.082-3.381-2.3-1.223-4.031.348-.4.113,4.41,2.235,1.391,3.282,2.656.411,2.734,2.736,3.275,4.207,1.6,1.663,1.267-1.837,3.18.163-1.211-1.782-6.4-5.02-2.222-3.981-.023-1.792-.757-3.238.526-3.2,1.271-2.3-1.33,5.668,1.531,2.747.791-.346.99-2.3,2.413.185,2.067,2.035.747,3.507-2.17,1.643.521,1.771,3.9,2.4,3.265,5.172.674,2.436,1.616,1.538,2.438,1.4.644,2.365,1.01.626,1.04-.5,2.949.632,2.257,2.376,3.182,3.593,2.032.917-2.909-6.217.579-2.145,3.67,3.315,1.378,4.7-1.917,4.167,2.085-.169,2.755,2.819,5.365,2.714C36.488,61.562,38.1,65.906,34,64.1c-1.421-1.283-6.455-2.864-2.343-.426,3.794,1.759,6.81,2.809,10.471,5.017,2.619,1.869,3.751,4.011,4.743,4.435-2.2,1.052-6.634-.84-3.342-1.418-2.055-.374-4.364-1.413-2.4,1.145,1.674,1.4,5.926,1.25,6.69,1.408-.646,1.424-1.756,1.537.025,1.647-1.987,1.06.639,1.225.822,1.829ZM44.6,66.255c-1.21-1.265-1.523-3.633-.215-1.574C45.06,64.952,46.536,68.553,44.6,66.255Zm13.238,8.409C58.6,74.614,57.863,75.237,57.841,74.664ZM42.695,63.153C42.646,61.241,43.13,64.628,42.695,63.153Zm-1.316-1.769C39.856,58.445,43.3,62.216,41.379,61.384Zm-15.946-11C26.327,50.14,25.874,51.907,25.433,50.379Zm12.691,6.878C38.673,55.195,38.768,58.986,38.124,57.257Zm-8.965-6.234C28.528,49.885,30.48,52.09,29.159,51.022Zm7.692,2.466c-1.441-3.227,1.022-1.764.321.529ZM23.584,44.641c-.644-1.059-1.709-4.167-1.366-5.116.308,1.546,3.285,6.65,1.458,2.115-2.017-3.8,2.413,1.232,2.869,2.182.213.942-1.245-.258-.258,1.954C24.486,43.258,25.225,47.167,23.584,44.641Zm-4.1-2.826C19.652,39.352,20.422,43.5,19.485,41.815Zm1.844.636C22.208,40.592,22.819,45.042,21.329,42.451Zm-4.438-3.432c-1.526-1.519-2.631-2.917.072-.943,1.04.04-2.315-3.179.251-1.022C19.91,37.545,18.545,41.477,16.891,39.019Zm2.33-.06C20.109,38.079,19.693,39.823,19.221,38.958Zm1.436.458C19.311,36.9,22.288,40.474,20.657,39.417Zm-2.851-2.723c-4.437-3.952,5.575,2.064.724.731ZM30.522,44.08c-1.922-1.15-.511-8.105.146-3.35,1.867-.6-.1,2.458,1.287,2.428C31.737,45.089,31.113,45.784,30.522,44.08Zm4.7,2.781C35.413,44.764,35.621,48.295,35.225,46.861Zm-.817-.809C34.619,45.157,34.428,47.106,34.408,46.051ZM18.675,35.4c-2.851-3.934,8.286,3.979,1.827,1C19.828,36.215,19.014,36.152,18.675,35.4Zm9.058,4.8C27.463,36.884,28.335,40.744,27.733,40.2Zm6.875,4.412C35.139,42.722,34.649,45.856,34.608,44.608ZM19.114,33.894c1.694-.363,7.021,2.974,2.13.952-.543-.6-1.7-.328-2.13-.953Zm14.55,7.251c.181-3.387,1.013-2.022.008.486l-.008-.487Zm-13.29-8.431c.691-1.013-1.835-4.578.363-1.278.95.754,2.749,1.263,1.16,1.581C24.4,35.22,21.289,33.614,20.374,32.714Zm12.57,7.374C33.421,36.23,33.366,42.348,32.944,40.088ZM18.93,29.151C19.459,28.925,19.211,29.855,18.93,29.151Zm3.28,1.952C23.054,29.331,23.766,33.077,22.211,31.1Zm9.248,5.144C31.451,35.568,31.634,37.237,31.459,36.247Zm-.536-1.185C29.639,31.895,32.118,36.738,30.922,35.062Zm-.787-2.078C29.921,31.676,30.867,34.628,30.135,32.985ZM31.418,30.9c-.882-1.552,1.113-6.841,1.336-3.561-.93,2.556-.268,3.984.378.556,1.2-2.7-.258,5.325-1.714,3Zm1.318-7.865C33.12,22.564,32.822,23.6,32.736,23.035Zm-2.2,43.38C30.013,65.959,30.6,66.7,30.534,66.415Zm4.535,2.293c2.523.649,2.511-.391.23-.7-1.225-1.14-5.1-2.35-1.631-.14C33.9,68.447,34.621,68.432,35.069,68.708Zm-8.955-5.949c1.388,1.038,5.234,2.937,1.979.4,1.1-1.276-2.1-1.955-1.04-2.809-2.7-1.652-2.13-1.5-.238-1.451-3.242-1.451.468-1.341.293-2.085-1.25-.246-6.212-2.206-3.293.16-2.967-1.511-.707.564-1.6.346-3.035-.827,2.7,2.311-.481,1.531,1.739,1.378,4.683,3.533.734,1.458-.518.749,2.827,1.884,3.648,2.453Zm4.743,2.726C36.623,67.342,28.028,63.213,30.857,65.485Zm24.28,14.708C55.212,79.048,54.35,81.17,55.137,80.193Zm2.5,1.05c1.33-1.287.055,2.055,2.2-.315.022-1.7-.065-2.7-2.47-.637-.664.369-.959,1.929.266.953ZM18.019,56.366C17.61,54.759,15.154,54.766,18.019,56.366Zm2.663,1.746C19.692,56.471,17.151,56.626,20.682,58.111Zm15.162,9.143c1.481,1.316,6.8.965,1.8.163C36.9,66.323,32.94,66.586,35.843,67.254ZM56.683,80.127C58.96,78.215,54.476,80.979,56.683,80.127Zm4.738,3.254C61.436,82.767,60.439,83.649,61.421,83.381Zm.008-.859C63.952,79.851,58.986,82.679,61.429,82.522ZM11.463,50.878c-2.15-3.067-1.335-4.445-3.41-6.951C7.66,42.01,4.5,37.665,6.417,42.268c1.759,2.694,2.28,6.863,5.047,8.61ZM60.637,81.672C65.28,78.673,58.733,80.367,60.637,81.672ZM64.18,83.06C66.505,81.065,62.709,82.644,64.18,83.06ZM17.229,52.974C17.893,51.985,15.51,52.847,17.229,52.974ZM63.441,82.113c2.25-1.45-.518-1.228-.408.133ZM32.9,62.864C32.824,61.882,31.712,62.947,32.9,62.864Zm1.887,1.085C34.187,62.737,33.867,64.14,34.788,63.95ZM67.051,83.093c2.884-2.08-1.746-.4-.6.4Zm-1.1-.534C68.3,80.592,63.468,83.431,65.947,82.559Zm5.642,3.756C73.165,85.26,69.672,85.974,71.589,86.315ZM18.675,52.261c2.112.473,8.446,5.2,4.71.328-1.914-.566-.766-5.245-2.718-4.418,1.31,2.19,1.077,3.119-1.675,1.742-3.455-1.689-1.942.835-1.265,1.531-.923.21,1.217.8.946.816Zm-9.629-7.6c.378-1.566-3.485-8.61-1.824-3.531C7.82,42.191,7.758,44.207,9.046,44.656Zm17.675,10.9C25.63,54.644,26.668,55.423,26.72,55.553Zm2.678.625C29.4,54.518,26.437,55.5,29.4,56.177Zm23.228,14.64C52.183,69.685,50.875,70.792,52.626,70.818Zm1.115.814C53.576,71,53.1,71.755,53.741,71.632Zm9.206,5.8C63.832,76.778,61.842,77.347,62.947,77.432ZM13.854,45.884C16.387,44.9,11.14,45.185,13.854,45.884ZM50.581,69.021C50.552,67.382,48.965,69.429,50.581,69.021ZM12.854,43.551C14.48,43,11.348,43.191,12.854,43.551Zm4.721,2.288C17.547,45.3,17.076,46.044,17.575,45.838ZM75.167,81.156c2.092-.423,6.86,1.065,7.63-.553-2.541-.063-8.787-1.794-9.083.41l.556.088.9.055ZM19.075,46.217C19.114,44.556,17.78,46.155,19.075,46.217ZM6.663,37.6C6.1,34.44,4.518,37.126,6.663,37.6Zm2.959.744C9.66,37.332,6.913,37.434,9.622,38.349Zm1.691.832C10.825,38.785,10.933,39.679,11.314,39.181ZM21.96,46.009C22.462,45.548,20.772,45.668,21.96,46.009Zm-11.771-8.7C9.9,34.917,6.758,36.949,10.189,37.307ZM4.117,33.368C4.032,32.265,3.525,33.784,4.117,33.368Zm.9-.681C4.874,31.378,4.245,32.852,5.021,32.687Zm4.987,2.976c2.11-.827-3.842-1.714-.431-.155ZM76.769,76.9C78.119,75.663,75.055,76.518,76.769,76.9Zm8.066,4.179C85.376,79.482,83.471,81.291,84.834,81.08ZM10.518,33.05C10.742,31.5,8.845,33.358,10.518,33.05Zm-7.1-4.755c-.381-2.185-.328-6.021,3.318-4.726-4.866.967,3.37,6.05,2.33,2.037,2.047.1,4-1.21,2.929.777,4.034-.443,6.828-3.941,10.724-3.45A42.5,42.5,0,0,0,32.343,21c2.688-.193,5.276-3.087,3.8-4.8a41.6,41.6,0,0,0-11.556.955c-4.49.932-8.569,2.706-13.1,3.468-4.418.594.887,1.634-.379,1.866-2.3.8,2.749,1.338-.3,2.182-1.881-.358-3.841-1-3.037-2.989-4.23.551-7.948,2.3-4.605,6.61l.248,0Zm10.2-5.192c.99-3.653,5.312,3.007,1.624.486A2.3,2.3,0,0,0,13.616,23.1Zm.192-1.772C15.24,20.266,14.568,21.93,13.809,21.33Zm1.817.031c.131-1.681,4.163.889.664.6l-.664-.6Zm2.486-1C19.021,19.3,18.374,21.3,18.111,20.361Zm.637-.426c1.513-1.817,8.561-1.161,3.4-.179-1.383-1.042-2.443.614-3.4.179Zm9.2-1.419C27.72,13.553,32.521,20.279,27.948,18.517Zm2.611-.015c.954-2.5,3.705-1,.443-.5C31.072,18.267,30.9,19.292,30.559,18.5ZM9.489,31.767C12.34,30.02,6.462,30.251,9.489,31.767Zm2.109.584C12.6,31.289,9.424,31.92,11.6,32.351ZM5.385,27.943C7.014,26.69,3.456,27.468,5.385,27.943Zm84.21,52.681C89.642,79.171,88.349,81.278,89.595,80.624Zm-8.557-5.841C81.281,73.113,79.938,74.929,81.038,74.784Zm10.91,6.4c2.278.008,6.9-.71,1.947-.707C93.115,80.6,89.362,80.577,91.947,81.188ZM13.453,31.325c1.844-.125,2.884-2.032-.359-1.924-5.024-.518,4.432,1.722-.644,1.08C11.77,30.932,13.413,31.451,13.453,31.325Zm1.624.822C14.884,30.965,14.505,32.776,15.077,32.148ZM17,27.011C17.8,26.018,15.9,26.745,17,27.011Zm-6.134-10.25c3.293-1.117,7.793-2.375,9.347.552-1.581-1.9-.639-3.776.854-.992,2.112,2.814,3.169-1.28,1.8-2.225,1.566,1.944,3.345,2.864,1.047.123,2.5-3-5,.393-6.7.358-.819.368-8.464,1.949-6.342,2.185ZM12.8,13.068c1.877-1.415,6.492.844,3.531-1.409C16.039,11.4,9.845,13.368,12.8,13.068Zm6.843.283c2.195.055-.947-2.952,1.669-1.589-.428-1.4-3.047-1.666-4.327-2.227C16.26,10.818,18.456,13.368,19.642,13.351ZM14,7.139C14.758,6.109,12.666,7.663,14,7.139Zm2.8.669c3.54-.468-.9-1.523-.715-.037l.715.037ZM11.573,3.724C9.08.469,16.262,4.27,13.728.862,11.6-.834,9.549,2.774,11.573,3.724ZM43.558,20.95c1.143-2.025-4.718-2.731-.769-.717.363.121.281.857.769.717ZM20.35,96.369a25.654,25.654,0,0,0-.468,5.026q0,.693-.625.694a.879.879,0,0,1-.872-.6,7.882,7.882,0,0,0-1.274-2.279,3.063,3.063,0,0,0-1.9-.916,57.124,57.124,0,0,0-6.344-.2,3.039,3.039,0,0,0-1.519.247q-.224.155-.223.67v10.119q0,.514.647.492,1.989-.023,5.763-.268a1.309,1.309,0,0,0,.995-.481,6.391,6.391,0,0,0,.5-2.021.764.764,0,0,1,1.05-.692c.506.1.723.335.649.692a32.976,32.976,0,0,0-.4,7.909q.024.579-.737.625-.627.067-.782-.671-.579-2.792-2.155-2.983a48.553,48.553,0,0,0-5.127-.189c-.268,0-.4.1-.4.29V121.88a1.527,1.527,0,0,0,.825,1.519,10.069,10.069,0,0,0,2.792.6c.731.074,1.05.4.962.96q-.135.737-1.967.581A41.754,41.754,0,0,0,1,125.59q-.962.132-.96-.782,0-.582.96-.671,2.189-.247,2.189-3.842V101.171A4.11,4.11,0,0,0,2.669,98.9,4.523,4.523,0,0,0,.715,97.463q-.894-.4-.671-1.095c.074-.282.194-.44.357-.469a3.775,3.775,0,0,1,1.184.09,57.613,57.613,0,0,0,6.635.223q6.167,0,10.656-.268,1.5-.091,1.5.245a.69.69,0,0,1-.023.179Zm14.487,28.358q0,.894-1.005.782a44.308,44.308,0,0,0-7.639.089,2.351,2.351,0,0,1-1.129-.043c-.142-.09-.212-.335-.212-.739q0-.535,1.217-.9t1.217-2.2V101.494a5.216,5.216,0,0,0-.524-2.659,3.4,3.4,0,0,0-1.843-1.317q-.693-.247-.694-.694,0-.67,1.005-1.005A14.064,14.064,0,0,0,28.382,94.3a5.187,5.187,0,0,1,1.7-.8q.826,0,.827,1.138,0-.088-.09,2.234-.065,2.211-.043,4.357l.088,19.948a2.57,2.57,0,0,0,.671,1.978,4.187,4.187,0,0,0,2.3.815q1,.111,1.005.76Zm20.2-1.317q0,.47-1.708,1.418a6.149,6.149,0,0,1-2.737.95,1.937,1.937,0,0,1-1.542-.849q-.67-.849-.939-.848a13.94,13.94,0,0,0-2.123.915,8.893,8.893,0,0,1-3.864.917,4.494,4.494,0,0,1-3.06-1.072,4.076,4.076,0,0,1-1.34-3.218q0-3.865,8.847-5.54,1.517-.291,1.54-1.229l.046-1.43q.134-3.663-3.239-3.663-.961,0-1.822,1.719a2.98,2.98,0,0,1-2.468,1.855q-1.831.177-1.832-1.542,0-1.073,2.726-2.5a11.859,11.859,0,0,1,5.5-1.5q4.534,0,4.49,4.312l-.09,9.2q-.021,1.452,1.229,1.452a7.163,7.163,0,0,0,.938-.111q.694-.112.805-.112c.431,0,.647.292.647.872Zm-6.88-5.092c.015-.373-.072-.62-.258-.737a1.246,1.246,0,0,0-.881-.068q-5.384.961-5.384,3.508,0,2.569,2.792,2.569a6.8,6.8,0,0,0,2.3-.423q1.387-.493,1.386-1.185l.045-3.663Zm23.489,2.522a4.5,4.5,0,0,1-1.821,3.765,7.976,7.976,0,0,1-4.971,1.4,20.112,20.112,0,0,1-4.2-.447,5.1,5.1,0,0,1-2.1-.737,12.426,12.426,0,0,1-.179-3.061q0-1.184.536-1.228.536-.068.916.58a5.758,5.758,0,0,0,5.406,2.928q3.148,0,3.149-2.191a2.079,2.079,0,0,0-.715-1.607,11.459,11.459,0,0,0-3.037-1.72,15.6,15.6,0,0,1-4.356-2.547,4.179,4.179,0,0,1-1.184-3.128,4.364,4.364,0,0,1,1.854-3.753,7.461,7.461,0,0,1,4.6-1.3,17.367,17.367,0,0,1,3.308.29q1.608.291,1.675.715.177,1.25.737,3.62c.045.192-.165.349-.625.468q-.738.156-.984-.245-1.764-2.883-4.468-2.882-3.06,0-3.06,1.966a2.1,2.1,0,0,0,.827,1.742,20.911,20.911,0,0,0,3.463,1.744,14.033,14.033,0,0,1,3.888,2.211,4.492,4.492,0,0,1,1.34,3.418Zm26.281,3.91q0,.782-1.05.827-1.564.023-4.088.223a1.872,1.872,0,0,1-1.787-.312,46.328,46.328,0,0,1-5.988-7.954.588.588,0,0,0-.513-.357,2.988,2.988,0,0,0-1.317.671,1.806,1.806,0,0,0-1.05,1.652q0,.761.045,2.191a2.216,2.216,0,0,0,.714,1.875,5.76,5.76,0,0,0,2.167.492q1.05.135,1.051.782c0,.343-.056.556-.168.636a1.617,1.617,0,0,1-.883.056,51.417,51.417,0,0,0-7.55.223q-1.34.111-1.452-.335a1.719,1.719,0,0,1-.045-.447c0-.461.455-.812,1.364-1.048q1.228-.315,1.228-2.883V101.516a6.26,6.26,0,0,0-.358-2.546,3.389,3.389,0,0,0-2.055-1.43q-.736-.244-.737-.692,0-.649,1.05-1.005A14.007,14.007,0,0,0,79.7,94.3a4.846,4.846,0,0,1,1.519-.8q.917,0,.917,1.162,0-.158-.023,2.211-.024,2.189-.021,4.379l.045,13.984c0,.388.1.58.312.58a2.02,2.02,0,0,0,1.028-.58q1.854-1.452,4.556-3.8a1.539,1.539,0,0,0,.536-.894c0-.4-.6-.686-1.809-.848a.741.741,0,0,1-.739-.872q.068-.782.782-.67a38.755,38.755,0,0,0,4.691.247q2.146.021,4.268.022c.461.015.692.29.692.827q0,.759-1.094.827a8.227,8.227,0,0,0-3.239.782,16.043,16.043,0,0,0-4.536,3.373.408.408,0,0,0-.179.335,4.458,4.458,0,0,0,.76,1.5,31.76,31.76,0,0,0,5.271,6.411,4.715,4.715,0,0,0,2.971,1.362,3.231,3.231,0,0,1,1.273.146q.247.145.247.77Z" transform="translate(0 0)"/>
</svg>
