<svg xmlns="http://www.w3.org/2000/svg" width="110.708" height="156.265" viewBox="0 0 110.708 156.265">
  <g id="html5" transform="translate(-74.633)">
    <path id="Path_47" data-name="Path 47" d="M84.708,213.624l-10.075-113H185.341L175.255,213.606l-45.336,12.569Z" transform="translate(0 -69.91)" fill="#e44d26"/>
    <path id="Path_48" data-name="Path 48" d="M256,237.6l36.634-10.156,8.619-96.552H256Z" transform="translate(-126.013 -90.945)" fill="#f16529"/>
    <path id="Path_49" data-name="Path 49" d="M176.885,204.357h-18.34l-1.267-14.192h19.606V176.3H142.132l.332,3.718,3.406,38.193h31.015Z" transform="translate(-46.898 -122.496)" fill="#ebebeb"/>
    <path id="Path_50" data-name="Path 50" d="M186.8,351.538l-.061.016-15.435-4.168-.987-11.054H156.409l1.942,21.761,28.39,7.881.064-.018Z" transform="translate(-56.818 -233.683)" fill="#ebebeb"/>
    <path id="Path_51" data-name="Path 51" d="M108.382,0h7.043V6.959h6.443V0h7.044V21.073h-7.043V14.016h-6.443v7.056h-7.043V0Z" transform="translate(-23.449)"/>
    <path id="Path_52" data-name="Path 52" d="M191.879,6.988h-6.2V0h19.448V6.988h-6.2V21.073h-7.044V6.988Z" transform="translate(-77.154)"/>
    <path id="Path_53" data-name="Path 53" d="M259.511,0h7.344l4.518,7.4L275.886,0h7.347V21.073h-7.014V10.628l-4.846,7.492h-.121L266.4,10.628V21.073h-6.892Z" transform="translate(-128.452)"/>
    <path id="Path_54" data-name="Path 54" d="M348.72,0h7.045V14.107h9.9v6.965H348.72Z" transform="translate(-190.434)"/>
    <path id="Path_55" data-name="Path 55" d="M255.843,268.217v13.859h17.066L271.3,300.051l-15.458,4.172v14.419l28.413-7.875.208-2.342,3.257-36.488.338-3.722H255.843Z" transform="translate(-125.904 -186.356)" fill="#fff"/>
    <path id="Path_56" data-name="Path 56" d="M255.843,176.3v13.86H289.32l.278-3.115.631-7.026.331-3.718Z" transform="translate(-125.904 -122.496)" fill="#fff"/>
  </g>
</svg>
