<svg xmlns="http://www.w3.org/2000/svg" xmlns:xlink="http://www.w3.org/1999/xlink" width="157.594" height="153.65" viewBox="0 0 157.594 153.65">
  <defs>
    <radialGradient id="radial-gradient" cx="0.332" cy="0.223" r="0.781" gradientTransform="matrix(0.973, 0, 0, -0.968, -0.039, 2.633)" gradientUnits="objectBoundingBox">
      <stop offset="0" stop-color="#423325" stop-opacity="0.98"/>
      <stop offset="1" stop-color="#1c0a00"/>
    </radialGradient>
  </defs>
  <g id="illustrator" transform="translate(362.4 -472.2)">
    <path id="Path_2" data-name="Path 2" d="M-341.6,493h144.435V633.522H-341.6Z" transform="translate(-14.236 -14.236)" fill="url(#radial-gradient)"/>
    <path id="Path_3" data-name="Path 3" d="M-355.836,478.764H-211.4V619.286H-355.836ZM-362.4,625.85h157.594V472.2H-362.4Zm103.222-98.867c0-.536.189-.789.789-.789h10.319c.536,0,.789.189.789.789V578.8c0,.536-.126.789-.789.789h-10.193c-.663,0-.852-.316-.852-.852V526.983Zm-.726-14.926a6.375,6.375,0,0,1,6.69-6.69,6.327,6.327,0,0,1,6.69,6.69c0,4.323-2.809,6.69-6.816,6.69C-257.127,518.778-259.9,516.411-259.9,512.056Zm-29.537,36.511c-1.83-7.29-6.185-23.163-7.826-30.862h-.126c-1.388,7.668-4.86,20.67-7.605,30.862Zm-18.24,10.635-5.175,19.691c-.126.536-.316.663-.978.663h-9.656c-.663,0-.789-.189-.663-.978l18.65-65.259a21.516,21.516,0,0,0,.663-5.459c0-.473.189-.663.536-.663h13.79c.473,0,.663.126.789.663l20.891,70.845c.126.536,0,.852-.536.852h-10.887c-.536,0-.852-.126-.978-.6l-5.4-19.755Z" transform="translate(0)" fill="#ff7f18"/>
  </g>
</svg>
