<?xml version="1.0" encoding="utf-8"?>
<!-- Generator: Adobe Illustrator 24.3.0, SVG Export Plug-In . SVG Version: 6.00 Build 0)  -->
<svg version="1.1" id="Layer_1" xmlns="http://www.w3.org/2000/svg" xmlns:xlink="http://www.w3.org/1999/xlink" x="0px" y="0px"
	 viewBox="0 0 512 512" style="enable-background:new 0 0 512 512;" xml:space="preserve">
<style type="text/css">
	.st0{fill:#FF3F94;}
	.st1{fill:#2E0013;}
</style>
<g id="XMLID_23_">
	<rect id="XMLID_26_" class="st0" width="512" height="512"/>
	<rect id="XMLID_27_" x="22.58" y="22.58" class="st1" width="466.97" height="466.97"/>
	<path id="XMLID_31_" class="st0" d="M189.65,350.4c0,2.1-0.56,3.23-2.67,3.23h-31.56c-1.82,0-2.38-1.12-2.38-3.23V126.25
		c0-2.1,0.84-2.52,2.38-2.52h31.84c1.82,0,2.38,0.42,2.38,2.52V350.4z"/>
	<path id="XMLID_34_" class="st0" d="M226.68,271.29c0-50.22,31.84-92.58,82.48-92.58c6.87,0,11.92,0.7,16.97,2.38v-56.25
		c0-1.68,0.56-2.38,1.82-2.38h32.4c1.12,0,1.54,0.7,1.54,2.1v189.93c0,7.29,0.56,16.69,0.84,22.16c0.28,1.68,0,2.38-1.54,3.51
		c-18.8,10.8-39.84,16.97-59.48,16.97C257.96,357.28,226.68,329.22,226.68,271.29z M326.14,214.2c-4.49-2.1-10.66-3.09-17.53-3.09
		c-26.79,0-44.89,22.86-44.89,58.21c0,39.14,19.64,54.71,42.22,54.71c7.43,0,14.87-1.4,20.2-3.51V214.2z"/>
</g>
</svg>
