<svg xmlns="http://www.w3.org/2000/svg" width="127.849" height="173.349" viewBox="0 0 127.849 173.349">
  <g id="java" transform="translate(-0.517 -0.37)">
    <path id="Path_86" data-name="Path 86" d="M69.18,248.638s-6.624,3.852,4.714,5.156c13.737,1.567,20.757,1.343,35.895-1.523a62.492,62.492,0,0,0,9.538,4.657c-33.934,14.544-76.8-.843-50.147-8.29m-4.147-18.979s-7.43,5.5,3.917,6.673c14.674,1.514,26.262,1.638,46.314-2.223a20.559,20.559,0,0,0,7.135,4.35c-41.029,12-86.729.946-57.366-8.8" transform="translate(-27.488 -114.207)" fill="#5382a1"/>
    <path id="Path_87" data-name="Path 87" d="M136.331,118.395c8.362,9.627-2.2,18.29-2.2,18.29s21.231-10.96,11.481-24.685c-9.107-12.8-16.091-19.159,21.717-41.085,0,0-59.345,14.821-31,47.48" transform="translate(-63.828 -35.137)" fill="#e76f00"/>
    <path id="Path_88" data-name="Path 88" d="M117.385,241.5s4.9,4.039-5.4,7.164C92.4,254.6,30.46,256.389,13.253,248.9c-6.185-2.69,5.414-6.424,9.062-7.208a23.513,23.513,0,0,1,5.98-.671c-6.879-4.846-44.461,9.515-19.09,13.627,69.19,11.221,126.125-5.052,108.179-13.147M44.877,188.818s-31.505,7.483-11.156,10.2c8.592,1.15,25.719.89,41.673-.447,13.039-1.1,26.131-3.438,26.131-3.438a55.316,55.316,0,0,0-7.924,4.24c-31.994,8.414-93.8,4.5-76.006-4.107,15.048-7.274,27.283-6.449,27.283-6.449m56.517,31.591c32.524-16.9,17.486-33.141,6.99-30.953a24.329,24.329,0,0,0-3.72,1,5.927,5.927,0,0,1,2.779-2.143c20.764-7.3,36.733,21.53-6.7,32.949a2.819,2.819,0,0,0,.653-.852" transform="translate(0 -93.03)" fill="#5382a1"/>
    <path id="Path_89" data-name="Path 89" d="M122.672.371s18.012,18.018-17.083,45.724c-28.142,22.225-6.417,34.9-.012,49.376C89.15,80.65,77.094,67.6,85.182,55.459,97.053,37.633,129.939,28.99,122.672.37" transform="translate(-40.886)" fill="#e76f00"/>
    <path id="Path_90" data-name="Path 90" d="M70.947,328.905c31.218,2,79.157-1.109,80.292-15.88,0,0-2.182,5.6-25.8,10.047-26.645,5.014-59.508,4.429-79,1.215,0,0,3.99,3.3,24.508,4.618" transform="translate(-22.873 -155.731)" fill="#5382a1"/>
  </g>
</svg>
