<svg id="js" xmlns="http://www.w3.org/2000/svg" width="156.265" height="156.265" viewBox="0 0 156.265 156.265">
  <path id="Path_57" data-name="Path 57" d="M0,0H156.265V156.265H0Z" fill="#f7df1e"/>
  <path id="Path_58" data-name="Path 58" d="M67.312,175.838,79.27,168.6c2.307,4.09,4.406,7.551,9.44,7.551,4.825,0,7.868-1.887,7.868-9.229v-49.93h14.685v50.138c0,15.21-8.916,22.133-21.923,22.133-11.747,0-18.566-6.084-22.028-13.427m51.928-1.572,11.957-6.923c3.148,5.14,7.239,8.916,14.476,8.916,6.085,0,9.965-3.042,9.965-7.238,0-5.035-3.986-6.818-10.7-9.754l-3.67-1.575c-10.595-4.509-17.623-10.174-17.623-22.132,0-11.014,8.391-19.406,21.5-19.406,9.336,0,16.049,3.252,20.874,11.749l-11.434,7.343c-2.518-4.51-5.244-6.293-9.44-6.293-4.3,0-7.028,2.727-7.028,6.293,0,4.405,2.727,6.19,9.021,8.917l3.671,1.573c12.483,5.35,19.511,10.8,19.511,23.076,0,13.218-10.384,20.455-24.335,20.455-13.636,0-22.447-6.5-26.748-15" transform="translate(-26.224 -45.252)"/>
</svg>
