<svg id="Layer_1" data-name="Layer 1" xmlns="http://www.w3.org/2000/svg" viewBox="0 0 279.97 252.05"><defs><style>.cls-1{fill:#fec86e;}.cls-2{fill:#ff7a7a;}.cls-3{fill:#fff;}.cls-4{fill:#50575e;}</style></defs><title>logos2</title><path class="cls-1" d="M110.88,375.22c10.24,35,39.76,106.39,89.64,100S231,404.27,276.8,395.42c20.16-3.89,33.83,31,54,29.92,26-1.4,39.27-27.16,46.54-48.81,15.42-45.92-7.67-123.78-61.71-137.26C268.5,227.5,263,285.12,222,268.38c-23-9.4-20.75-37.49-48.82-43.16C88.24,208.07,97.26,328.65,110.88,375.22Z" transform="translate(-102.09 -223.56)"/><path class="cls-2" d="M346.51,248.15v77.52L325.84,358.4l-20.67-32.73V248.15Z" transform="translate(-102.09 -223.56)"/><path class="cls-3" d="M325.84,324l6.89-5.17V248.15H319v70.63Z" transform="translate(-102.09 -223.56)"/><path class="cls-4" d="M325.84,358.4l13.06-20.67H312.79Z" transform="translate(-102.09 -223.56)"/><path class="cls-3" d="M332.73,318.78,325.84,324,319,318.78l-13.78,6.89,7.62,12.06H338.9l7.61-12.06Z" transform="translate(-102.09 -223.56)"/><path class="cls-2" d="M260.38,292.94H219L177.69,420.42h27.57l6.89-24.12h55.12l6.89,24.12h27.56ZM219,368.74l10.33-41.34h20.68l10.33,41.34Z" transform="translate(-102.09 -223.56)"/><path d="M343.07,248.15v72l-6.89-3.45v-68.5h-6.89v68.91l-3.45,2.58-3.44-2.58V248.15h-6.89v68.5l-6.89,3.45v-72h-6.9v78.52l24.12,38.19L350,326.67V248.15ZM325.84,352,319,341.18h13.61ZM337,334.29H314.69l-4.57-7.24,8.49-4.23,7.23,5.44,7.24-5.44,8.49,4.23Z" transform="translate(-102.09 -223.56)"/><path d="M226.68,324l-12.05,48.23h50.16L252.74,324Zm-3.23,41.34,8.61-34.45h15.3L256,365.29Z" transform="translate(-102.09 -223.56)"/><path d="M263.83,292.4V268.83h13.78v-6.9H263.83V248.15h-6.89v13.78H222.48V248.15h-6.89v13.78H201.81v6.9h13.78V292.4L205.36,324H157V310.17h-6.89V324H129.46v6.89h20.67v34.45H129.46v6.89h20.67V386H157V372.18h32.69l-22.35,68.91H150.13V448h15l-5.24,16.16,6.55,2.13L172.38,448H193.8l-4.65,16.28,6.63,1.89L201,448H219v-6.89h-16.1l11.8-41.34h49.93l11.81,41.34h-16.1V448h18.07l5.19,18.17,6.63-1.89L285.62,448H307L313,466.27l6.55-2.13L314.29,448h15v-6.89H312.06Zm-41.35-23.57h34.46V289.5H222.48ZM157,365.29V330.84h46.1L192,365.29Zm38.75,75.8H174.61l5.59-17.23h20.49Zm81-24.12-6.89-24.11H209.55L202.66,417H182.44l39.1-120.58h36.34L297,417Zm6.89,24.12-4.92-17.23h20.49l5.61,17.23Z" transform="translate(-102.09 -223.56)"/></svg>