<svg id="Layer_1" data-name="Layer 1" xmlns="http://www.w3.org/2000/svg" viewBox="0 0 250 250"><defs><style>.cls-1{fill:#4d0000;}.cls-2{fill:#f6b001;}.cls-3{fill:#f9cd60;}.cls-4{fill:#f9d068;}.cls-5{fill:#fadb8f;}.cls-6{fill:#424242;}.cls-7{fill:#7ec13a;}.cls-8{fill:#94cc5d;}.cls-9{fill:#91ca57;}.cls-10{fill:#d0e8b8;}.cls-11{fill:#bedf9d;}.cls-12{fill:#cde6b3;}.cls-13{fill:#d2e9bb;}.cls-14{fill:#7dc13a;}.cls-15{fill:#429221;}</style></defs><title>Untitled-1</title><path class="cls-1" d="M239.64,208.5v37.69a3.56,3.56,0,0,1-3.81,3.81H176.9a3.83,3.83,0,0,1-2.63-1,3.72,3.72,0,0,1-1.18-2.83V233.67a3.89,3.89,0,0,1,1-2.57,3.75,3.75,0,0,1,2.73-1.32h44V208.55a3.8,3.8,0,0,1,1-2.63,3.68,3.68,0,0,1,2.82-1.18h11.09a4,4,0,0,1,2.54.93,3.7,3.7,0,0,1,1.35,2.79Zm-3.91,37.59V208.65h-11v25H177v12.4Zm-11.16-37.44Z"/><path class="cls-1" d="M240.57,169.41a34.22,34.22,0,0,1-1.21,9.1,33.61,33.61,0,0,1-3.45,8.17,34.12,34.12,0,0,1-5.34,6.91,34.52,34.52,0,0,1-6.87,5.34,33.63,33.63,0,0,1-8.15,3.45,34.33,34.33,0,0,1-33.32-8.79,33.26,33.26,0,0,1-5.35-6.92,35.26,35.26,0,0,1-3.44-8.15,34.28,34.28,0,0,1,0-18.2,35.12,35.12,0,0,1,3.44-8.18,33.94,33.94,0,0,1,12.3-12.28,35.27,35.27,0,0,1,8.16-3.44,34.35,34.35,0,0,1,18.22,0,34.5,34.5,0,0,1,8.13,3.44,33.61,33.61,0,0,1,6.89,5.35,35.13,35.13,0,0,1,5.33,6.93,33.58,33.58,0,0,1,3.45,8.19A34.23,34.23,0,0,1,240.57,169.41Zm-64.46,0a29.63,29.63,0,0,0,1.09,8.05,31.5,31.5,0,0,0,3.05,7.25,29.48,29.48,0,0,0,4.73,6.11,30.6,30.6,0,0,0,6.17,4.74,30.61,30.61,0,0,0,23.36,3.05,29.46,29.46,0,0,0,7.2-3,31.11,31.11,0,0,0,6.1-4.74,30.71,30.71,0,0,0,4.74-6.13,30.4,30.4,0,0,0,0-30.58,31.49,31.49,0,0,0-4.74-6.16,30,30,0,0,0-6.1-4.73,30.59,30.59,0,0,0-7.21-3,30.27,30.27,0,0,0-16.1,0,31.1,31.1,0,0,0-7.26,3.06A29.46,29.46,0,0,0,185,148a30.25,30.25,0,0,0-4.74,6.14,31.39,31.39,0,0,0-3.05,7.26A29.88,29.88,0,0,0,176.11,169.41Zm48.9,0a17.73,17.73,0,0,1-1.45,7.19,17.45,17.45,0,0,1-4,5.66,18.13,18.13,0,0,1-5.92,3.7,19.93,19.93,0,0,1-7.24,1.31,20.19,20.19,0,0,1-7.22-1.3,18.59,18.59,0,0,1-6-3.7,17.7,17.7,0,0,1,0-25.76,18.32,18.32,0,0,1,6-3.7,20.61,20.61,0,0,1,14.46,0,18.16,18.16,0,0,1,5.92,3.71,17.32,17.32,0,0,1,4,5.68A17.86,17.86,0,0,1,225,169.41Zm-33.38,0a13.31,13.31,0,0,0,4.27,10,14.38,14.38,0,0,0,4.7,2.91,16.65,16.65,0,0,0,11.64,0,14.4,14.4,0,0,0,4.65-2.9A13.6,13.6,0,0,0,220,175a13.84,13.84,0,0,0,1.12-5.61,14,14,0,0,0-1.12-5.64,13.43,13.43,0,0,0-3.1-4.41,14.15,14.15,0,0,0-4.65-2.91,16.8,16.8,0,0,0-11.64,0,14.72,14.72,0,0,0-4.7,2.91,13.44,13.44,0,0,0-4.27,10Z"/><path class="cls-1" d="M240.57,96.88a34.16,34.16,0,0,1-1.21,9.1,34.05,34.05,0,0,1-8.79,15.07,34.89,34.89,0,0,1-6.87,5.34,33.67,33.67,0,0,1-8.15,3.44,34.82,34.82,0,0,1-18.2,0,34.3,34.3,0,0,1-15.12-8.78,33.47,33.47,0,0,1-5.35-6.91,35.26,35.26,0,0,1-3.44-8.15,34.67,34.67,0,0,1,.27-19.24A35,35,0,0,1,178,77.84a4.93,4.93,0,0,1,1.83-1.77,3.41,3.41,0,0,1,3.55.23l.08,0,10,6.92a4.89,4.89,0,0,1,1.47,1.85,3.45,3.45,0,0,1-.51,3.29l-.05.07a16.49,16.49,0,0,0-2.11,4.11,14,14,0,0,0-.74,4.59,13.25,13.25,0,0,0,4.3,10,15,15,0,0,0,4.72,2.89,16.15,16.15,0,0,0,5.81,1,16,16,0,0,0,5.78-1,14.86,14.86,0,0,0,4.67-2.88,13.26,13.26,0,0,0,4.24-10,18,18,0,0,0-.19-2.65c-.06-.46-.14-.93-.23-1.43h-9.43a3.92,3.92,0,0,1-2.62-.95,3.63,3.63,0,0,1-1.19-2.85V77.83a4.35,4.35,0,0,1,.87-2.48,3.53,3.53,0,0,1,2.94-1.54h20.41a4,4,0,0,1,3.5,2.13,25.22,25.22,0,0,1,2.48,4.7,37.53,37.53,0,0,1,1.69,5.29,46.93,46.93,0,0,1,1,5.52A46.23,46.23,0,0,1,240.57,96.88Zm-64.46,0a29.63,29.63,0,0,0,1.09,8.05,31.42,31.42,0,0,0,3.05,7.24,29.48,29.48,0,0,0,4.73,6.11,31.19,31.19,0,0,0,6.16,4.74,30.75,30.75,0,0,0,7.25,3,30.15,30.15,0,0,0,23.32-3,31.06,31.06,0,0,0,6.1-4.73,30.71,30.71,0,0,0,4.74-6.13,29.83,29.83,0,0,0,3-7.22,30.15,30.15,0,0,0,1.07-8.06,42.58,42.58,0,0,0-.3-5,43.24,43.24,0,0,0-.91-5.06,35.58,35.58,0,0,0-1.51-4.75,21.44,21.44,0,0,0-2.12-4l-.07-.12a1.11,1.11,0,0,0-.2-.25h-20.2a1.23,1.23,0,0,0-.08.15V89.2h12.54l.32,1.56c.23,1.13.42,2.21.57,3.21a22.78,22.78,0,0,1,.23,3.21,17.51,17.51,0,0,1-1.48,7.21,17.1,17.1,0,0,1-4,5.62,18.22,18.22,0,0,1-5.91,3.66,20.47,20.47,0,0,1-14.41,0,18.67,18.67,0,0,1-6-3.65,17.18,17.18,0,0,1-5.57-12.84,18,18,0,0,1,.95-5.87,20.57,20.57,0,0,1,2.52-4.94l0,0-9.58-6.63-.12.16-.06.1a31.14,31.14,0,0,0-3.82,8A29.78,29.78,0,0,0,176.11,96.88Zm35.17-7.45Zm0-11.55Zm-.19,11.31Z"/><path class="cls-1" d="M240.57,34.22a34.29,34.29,0,0,1-1.21,9.11,34.2,34.2,0,0,1-8.79,15.07,34.52,34.52,0,0,1-6.87,5.34,33.3,33.3,0,0,1-8.15,3.45,34.82,34.82,0,0,1-18.2,0,34.3,34.3,0,0,1-15.12-8.78,33.79,33.79,0,0,1-5.35-6.92,35.26,35.26,0,0,1-3.44-8.15,34.31,34.31,0,0,1,0-18.21A35.23,35.23,0,0,1,176.88,17,34.22,34.22,0,0,1,182.22,10a33.77,33.77,0,0,1,7-5.35,35.7,35.7,0,0,1,8.16-3.44,34.35,34.35,0,0,1,18.22,0,35,35,0,0,1,8.13,3.45A33.61,33.61,0,0,1,230.58,10,34.78,34.78,0,0,1,235.91,17a33.58,33.58,0,0,1,3.45,8.19A34.29,34.29,0,0,1,240.57,34.22Zm-64.46,0a29.76,29.76,0,0,0,1.09,8.06,31.42,31.42,0,0,0,3.05,7.24A29.81,29.81,0,0,0,185,55.64a31.19,31.19,0,0,0,6.16,4.74,30.75,30.75,0,0,0,7.25,3,30.15,30.15,0,0,0,23.32-3,30.78,30.78,0,0,0,10.84-10.87,30.42,30.42,0,0,0,0-30.58,31.13,31.13,0,0,0-4.74-6.15,30,30,0,0,0-6.1-4.73A30.62,30.62,0,0,0,214.5,5a30.54,30.54,0,0,0-16.1,0,32,32,0,0,0-7.26,3.06A29.46,29.46,0,0,0,185,12.78a30.25,30.25,0,0,0-4.74,6.14,31.46,31.46,0,0,0-3.05,7.27A29.76,29.76,0,0,0,176.11,34.22Zm48.9,0a17.69,17.69,0,0,1-1.45,7.19,17.35,17.35,0,0,1-4,5.66,18.16,18.16,0,0,1-5.92,3.71,20.61,20.61,0,0,1-14.46,0,18.42,18.42,0,0,1-6-3.7,17.71,17.71,0,0,1,0-25.76,18.49,18.49,0,0,1,6-3.7,20.61,20.61,0,0,1,14.46,0,18.33,18.33,0,0,1,5.92,3.71,17.26,17.26,0,0,1,4,5.69A17.81,17.81,0,0,1,225,34.22Zm-33.38,0a13.31,13.31,0,0,0,4.27,10,14.38,14.38,0,0,0,4.7,2.91,16.73,16.73,0,0,0,11.64,0,14.25,14.25,0,0,0,4.65-2.91,13.5,13.5,0,0,0,3.1-4.4,14.66,14.66,0,0,0,0-11.24,13.47,13.47,0,0,0-3.1-4.42,14.12,14.12,0,0,0-4.65-2.9,16.65,16.65,0,0,0-11.64,0,14.38,14.38,0,0,0-4.7,2.91,13.58,13.58,0,0,0-3.14,4.42A13.76,13.76,0,0,0,191.63,34.22Z"/><path class="cls-2" d="M15.41,151.85c-1.85,0-3.69-.18-5.54-.27-.48,0-.44-.29-.44-.6,0-3,.16-5.92.42-8.86a106,106,0,0,1,6.38-28c0-.12.1-.23.21-.49a7,7,0,0,1-.13,1.94,45.23,45.23,0,0,0-.12,8.86c.82,8.58,4.94,15,12.5,19.17a46.27,46.27,0,0,0,13.76,4.67c.76.15,1.53.29,2.3.47a92.12,92.12,0,0,1-21.47,3.09c-1,.09-2,0-3,0a1.47,1.47,0,0,0-.69.06H19a22.25,22.25,0,0,0-2.71-.06A3.85,3.85,0,0,1,15.41,151.85Z"/><path class="cls-2" d="M135,30.85a146.38,146.38,0,0,1-8.11,45.31l.42-4a104.38,104.38,0,0,0,.38-19.6,55.88,55.88,0,0,0-4-17.17A37.75,37.75,0,0,0,122,31.82c-.16-.3-.17-.48.11-.71,4.76-4,7.69-9.12,9.74-14.86.82-2.31,1.58-4.64,2.38-7a1.33,1.33,0,0,1,.19-.4q.48,5,.6,10.05c.1.71,0,1.42.05,2.13,0,.21-.06.43.06.63v6.13a18,18,0,0,0-.06,2.32A2.36,2.36,0,0,1,135,30.85Z"/><path class="cls-3" d="M19.61,152a6.18,6.18,0,0,1,1.92-.12c.58,0,1.17,0,1.75,0a.36.36,0,0,0,0,.1Z"/><path class="cls-3" d="M15.41,151.85A17.45,17.45,0,0,1,19,152H15.43A.36.36,0,0,0,15.41,151.85Z"/><path class="cls-4" d="M135,30.85a12.72,12.72,0,0,1,.11-3v3Z"/><path class="cls-5" d="M135.11,21.7a11.59,11.59,0,0,1-.11-2.76l.11,0Z"/><path class="cls-6" d="M103.29,114.73c-2.19,2.43-4.37,4.67-6.65,6.82a77.28,77.28,0,0,1-17.43,12.72,46.29,46.29,0,0,1-15.67,5A40.4,40.4,0,0,1,42,135.86a62.31,62.31,0,0,1-9.33-5.31A18.19,18.19,0,0,1,25.23,120a30.49,30.49,0,0,1-.72-12.61c1.43-10.56,6-19.77,12.29-28.23A95.92,95.92,0,0,1,63.59,55c1.6-1,3.25-1.92,4.88-2.88a1.24,1.24,0,0,1,.64-.19l-.47.57A141.56,141.56,0,0,0,52.92,75.16a62,62,0,0,0-6.23,15.75,27.17,27.17,0,0,0-.13,13.23c1.52,5.62,5.16,9.43,10.31,11.91a33.15,33.15,0,0,0,10.31,2.87,72.39,72.39,0,0,0,20.52-.72,131.55,131.55,0,0,0,15.18-3.41A2.27,2.27,0,0,1,103.29,114.73Z"/><path class="cls-2" d="M110.77,105.48c-.28-2.57-.56-5.11-.83-7.65q-.69-6.58-1.61-13.13c-.78-5.46-1.73-10.89-3-16.27a111.65,111.65,0,0,0-9.6-26.84c-.23-.44-.13-.57.3-.69q8.81-2.48,17.6-5c.5-.14.66,0,.86.43A53.5,53.5,0,0,1,119,52.47a72,72,0,0,1-.11,16.21c-.94,8.5-3,16.78-5.07,25.06q-1.41,5.66-2.8,11.32A.66.66,0,0,1,110.77,105.48Z"/><path class="cls-6" d="M57,85.46l.77.54a127.72,127.72,0,0,0,15.4,9.75,22.67,22.67,0,0,0,7.26,2.58c3.58.48,5.69-1.07,6.37-4.63a23.56,23.56,0,0,0,.06-7.21c-1-8.49-3.48-16.64-6-24.77-1.35-4.37-2.81-8.71-4.35-13-.19-.54-.07-.71.45-.92,2.68-1.07,5.33-2.19,8-3.33.5-.21.63-.09.77.4,3.09,10.77,6,21.57,8.2,32.56A120.49,120.49,0,0,1,96.55,97a28.37,28.37,0,0,1-1.1,10.24c-.09.27-.19.53-.3.79-1.39,3.11-3.83,4.32-7.16,3.55a19.55,19.55,0,0,1-5.7-2.48,66.6,66.6,0,0,1-10.41-8.14c-5.2-4.77-10-9.91-14.72-15.16L57,85.53Z"/><path class="cls-7" d="M41.44,227.81a9.63,9.63,0,1,1,11.41,10.28c-.33.06-.67.11-1,.14a2.53,2.53,0,0,1-.28,0,1.48,1.48,0,0,0-.42,0h-.23a1.68,1.68,0,0,0-.45,0h-.26a7.54,7.54,0,0,1-2.85-.64A9.38,9.38,0,0,1,44,235.34a9.55,9.55,0,0,1-2.57-5.19,6.12,6.12,0,0,1,0-.74v-.26a1.17,1.17,0,0,0,0-.37v-.27a1.48,1.48,0,0,0,0-.42A1.32,1.32,0,0,1,41.44,227.81Z"/><path class="cls-8" d="M50.46,238.22c.15,0,.32-.05.46,0h-.46s0,0,0,0S50.45,238.22,50.46,238.22Z"/><path class="cls-9" d="M41.44,228.09c0,.14.05.29,0,.42v-.42Z"/><path class="cls-8" d="M51.15,238.26c.14-.08.28,0,.43,0s0,0,0,0Z"/><path class="cls-9" d="M41.4,228.78c.09.12,0,.25,0,.38a0,0,0,0,1,0,0Z"/><path class="cls-10" d="M41.44,228.09h0v-.27h0Z"/><path class="cls-11" d="M41.4,229.15h0v.27h0Z"/><path class="cls-12" d="M50.46,238.22v0h-.27a.08.08,0,0,0,0,0Z"/><path class="cls-13" d="M51.57,238.26a.08.08,0,0,1,0,0h.27v0Z"/><path class="cls-14" d="M49.79,191.18a38.16,38.16,0,0,1,6.8-22,40.06,40.06,0,0,1,13.72-12.32,4.64,4.64,0,0,1,5.38.57A6.08,6.08,0,0,1,78,162a4.47,4.47,0,0,1-2.37,4.2c-.56.33-1.18.58-1.76.9a19.24,19.24,0,0,0-7.56,7.17,15.86,15.86,0,0,0-2.09,6.18,17.86,17.86,0,0,0,3.14,12.86,18.34,18.34,0,0,0,8.09,6.31A17.63,17.63,0,0,0,80.49,201a17.86,17.86,0,0,0,3.27,0,17.24,17.24,0,0,0,4.59-1,16.57,16.57,0,0,0,5.26-3.26,23.6,23.6,0,0,0,2.45-2.55,5.67,5.67,0,0,1,2-1.59,3.06,3.06,0,0,1,4.13,1.26,7.06,7.06,0,0,1,.92,2.89,18.8,18.8,0,0,1-.5,6.34A42.59,42.59,0,0,1,99.74,212a27.64,27.64,0,0,1-5.48,8,20.33,20.33,0,0,1-10.71,5.7,21.2,21.2,0,0,1-6.46.21,27.07,27.07,0,0,1-13.18-5.37A34.07,34.07,0,0,1,52.67,206a37.08,37.08,0,0,1-2.43-8.77A40.07,40.07,0,0,1,49.79,191.18Z"/><path class="cls-15" d="M127.41,191.61a35.88,35.88,0,0,1-.34,5.39,34.1,34.1,0,0,1-1.15,4.87,39.63,39.63,0,0,1-5.8,12,38.44,38.44,0,0,1-11.26,10.37c-.65.41-1.31.8-2,1.19a4.06,4.06,0,0,1-5.26-.71A5.34,5.34,0,0,1,100.3,219a4.79,4.79,0,0,1,2.72-2.74,23.89,23.89,0,0,0,4.39-2.59,15.77,15.77,0,0,0,6.28-10.36,19.55,19.55,0,0,0-.67-9.75,16.49,16.49,0,0,0-6.49-8.35,20,20,0,0,0-8.11-3.27,21.35,21.35,0,0,0-8.83.69,13.78,13.78,0,0,0-5.9,3.89c-.56.61-1.06,1.27-1.59,1.9a5.93,5.93,0,0,1-2.5,1.9,3,3,0,0,1-3.58-1,6,6,0,0,1-1.08-2.63,14.66,14.66,0,0,1,0-4.72,45.45,45.45,0,0,1,2.44-9.59A30,30,0,0,1,82.05,164a20.32,20.32,0,0,1,10.24-6.94,19.76,19.76,0,0,1,7-.73,26.14,26.14,0,0,1,13.84,5.29,34.05,34.05,0,0,1,10.9,13.7A37.46,37.46,0,0,1,126.9,185,40.55,40.55,0,0,1,127.41,191.61Z"/><path class="cls-15" d="M116.21,153.88a9.62,9.62,0,1,1,9.6,9.62A9.62,9.62,0,0,1,116.21,153.88Z"/></svg>