<svg id="Layer_1" data-name="Layer 1" xmlns="http://www.w3.org/2000/svg" viewBox="0 0 279.97 252.05"><defs><style>.cls-1{fill:#ffd99c;}.cls-2{fill:#ff7a7a;}.cls-3{fill:#fff;}.cls-4{fill:#50575e;}.cls-5{fill:#4d0000;}</style></defs><title>logos1</title><path class="cls-1" d="M183.8,274.57c10.25,35,39.76,106.39,89.64,100,50-6.42,30.49-70.93,76.29-79.77,20.16-3.9,33.82,31,54,29.91,26-1.4,39.26-27.16,46.53-48.81,15.42-45.92-7.67-123.78-61.71-137.26-47.16-11.77-52.68,45.85-93.68,29.12-23-9.41-20.75-37.5-48.82-43.17C161.16,107.42,170.18,228,183.8,274.57Z" transform="translate(-175.02 -122.91)"/><path class="cls-2" d="M419.44,147.51V225l-20.68,32.73L378.09,225V147.51Z" transform="translate(-175.02 -122.91)"/><path class="cls-3" d="M398.76,223.3l6.9-5.17V147.51H391.87v70.62Z" transform="translate(-175.02 -122.91)"/><path class="cls-4" d="M398.76,257.75l13.06-20.67H385.71Z" transform="translate(-175.02 -122.91)"/><path class="cls-3" d="M405.66,218.13l-6.9,5.17-6.89-5.17L378.09,225l7.62,12.06h26.11L419.44,225Z" transform="translate(-175.02 -122.91)"/><path class="cls-2" d="M333.3,192.29H292L250.62,319.77h27.56l6.89-24.12h55.12l6.9,24.12h27.56ZM292,268.09l10.34-41.34H323l10.33,41.34Z" transform="translate(-175.02 -122.91)"/><path class="cls-5" d="M416,147.51v71.94L409.1,216V147.51h-6.89v68.9L398.76,219l-3.44-2.58v-68.9h-6.89V216l-6.89,3.45V147.51h-6.89V226l24.11,38.19L422.88,226V147.51ZM398.76,251.3,392,240.53h13.61Zm11.16-17.66H387.61L383,226.4l8.49-4.23,7.23,5.44,7.24-5.44,8.49,4.23Z" transform="translate(-175.02 -122.91)"/><path class="cls-5" d="M299.61,223.3l-12.06,48.24h50.17L325.66,223.3Zm-3.24,41.34L305,230.19h15.29l8.61,34.45Z" transform="translate(-175.02 -122.91)"/><path class="cls-5" d="M336.75,191.75V168.18h13.78v-6.89H336.75V147.51h-6.89v13.78H295.41V147.51h-6.89v13.78H274.73v6.89h13.79v23.57L278.28,223.3H230V209.52h-6.89V223.3H202.38v6.89h20.68v34.45H202.38v6.9h20.68v13.78H230V271.54h32.69l-22.36,68.9H223.06v6.89h15l-5.24,16.16,6.54,2.13,5.94-18.29h21.42l-4.65,16.28,6.63,1.9,5.19-18.18H292v-6.89h-16.1l11.81-41.34H337.6l11.81,41.34H333.3v6.89h18.08l5.19,18.18,6.62-1.9-4.64-16.28H380l5.94,18.29,6.54-2.13-5.23-16.16h15v-6.89H385Zm-41.34-23.57h34.45v20.67H295.41ZM230,264.64V230.19h46.1l-11.18,34.45Zm38.74,75.8H247.53l5.59-17.23h20.49Zm81-24.12-6.89-24.11H282.47l-6.89,24.11H255.36l39.11-120.58H330.8l39.11,120.58Zm6.89,24.12-4.92-17.23h20.49l5.61,17.23Z" transform="translate(-175.02 -122.91)"/></svg>