<svg xmlns="http://www.w3.org/2000/svg" width="63.637" height="142.114" viewBox="0 0 63.637 142.114">
  <g id="mongodb" transform="translate(-10875 -2134)">
    <path id="Path_75" data-name="Path 75" d="M35.053,142.317l-3.783-1.293s.462-19.286-6.46-20.67c-4.613-5.353.74-227.013,17.35-.739,0,0-5.722,2.86-6.737,7.752-1.108,4.8-.37,14.95-.37,14.95Z" transform="translate(10875 2133.797)" fill="#fff" fill-rule="evenodd"/>
    <path id="Path_76" data-name="Path 76" d="M35.053,142.317l-3.783-1.293s.462-19.286-6.46-20.67c-4.613-5.353.74-227.013,17.35-.739,0,0-5.722,2.86-6.737,7.752-1.108,4.8-.37,14.95-.37,14.95Z" transform="translate(10875 2133.797)" fill="#a6a385" fill-rule="evenodd"/>
    <path id="Path_77" data-name="Path 77" d="M37.084,123.676s33.13-21.779,25.377-67.09c-7.474-32.943-25.1-43.74-27.038-47.893A46.586,46.586,0,0,1,31.27.573l1.385,91.634c0,.093-2.861,28.054,4.43,31.47" transform="translate(10875 2133.797)" fill="#fff" fill-rule="evenodd"/>
    <path id="Path_78" data-name="Path 78" d="M37.084,123.676s33.13-21.779,25.377-67.09c-7.474-32.943-25.1-43.74-27.038-47.893A46.586,46.586,0,0,1,31.27.573l1.385,91.634c0,.093-2.861,28.054,4.43,31.47" transform="translate(10875 2133.797)" fill="#499d4a" fill-rule="evenodd"/>
    <path id="Path_79" data-name="Path 79" d="M29.333,124.875S-1.767,103.65.079,66.277C1.832,28.9,23.8,10.539,28.04,7.217,30.809,4.264,30.9,3.156,31.086.2c1.938,4.153,1.569,62.106,1.845,68.934C33.761,95.437,31.455,119.893,29.333,124.875Z" transform="translate(10875 2133.797)" fill="#fff" fill-rule="evenodd"/>
    <path id="Path_80" data-name="Path 80" d="M29.333,124.875S-1.767,103.65.079,66.277C1.832,28.9,23.8,10.539,28.04,7.217,30.809,4.264,30.9,3.156,31.086.2c1.938,4.153,1.569,62.106,1.845,68.934C33.761,95.437,31.455,119.893,29.333,124.875Z" transform="translate(10875 2133.797)" fill="#58aa50" fill-rule="evenodd"/>
  </g>
</svg>
