<svg id="mysql" xmlns="http://www.w3.org/2000/svg" width="192.756" height="192.756" viewBox="0 0 192.756 192.756">
  <path id="Path_81" data-name="Path 81" d="M0,0H192.756V192.756H0Z" fill="rgba(255,255,255,0)" fill-rule="evenodd"/>
  <path id="Path_82" data-name="Path 82" d="M8.5,128.215h5.8V105.238l9.058,20.033c1.026,2.408,2.5,3.3,5.354,3.3s4.239-.893,5.31-3.3l9.013-20.033v22.977h5.845V105.238c0-2.23-.893-3.3-2.767-3.883-4.417-1.338-7.362-.178-8.7,2.811l-8.878,19.811-8.567-19.811c-1.294-2.988-4.284-4.148-8.745-2.811-1.829.58-2.722,1.652-2.722,3.883v22.977h0Zm45.2-18.694h5.845v12.627c-.044.713.223,2.32,3.391,2.363,1.651.045,12.582,0,12.671,0v-15.08h5.845v20.658c0,5.086-6.291,6.2-9.236,6.246H53.835v-3.881H72.262c3.748-.4,3.3-2.275,3.3-2.9v-1.518H63.205c-5.756-.045-9.459-2.588-9.5-5.488,0-.267.133-12.939,0-13.027ZM179.076,94.886a20.647,20.647,0,0,0-8.656,1.25c-.668.269-1.74.269-1.828,1.116.357.355.4.936.713,1.428a10.44,10.44,0,0,0,2.32,2.721c.938.715,1.875,1.428,2.855,2.053,1.74,1.07,3.7,1.695,5.4,2.766.982.625,1.963,1.428,2.945,2.1.49.357.8.938,1.428,1.16v-.135c-.312-.4-.4-.98-.713-1.428-.447-.445-.893-.848-1.34-1.293a21.1,21.1,0,0,0-4.641-4.506c-1.428-.982-4.551-2.32-5.131-3.971l-.088-.09a18.211,18.211,0,0,0,3.078-.715c1.518-.4,2.9-.312,4.461-.713.715-.179,1.428-.4,2.143-.625v-.4c-.8-.8-1.383-1.874-2.23-2.632a59.481,59.481,0,0,0-7.363-5.488c-1.383-.892-3.168-1.473-4.639-2.23-.537-.268-1.428-.4-1.74-.848a17.889,17.889,0,0,1-1.83-3.436c-1.293-2.454-2.543-5.175-3.658-7.763a47.88,47.88,0,0,0-2.275-5.086c-4.6-7.585-9.594-12.181-17.268-16.687a21.394,21.394,0,0,0-5.711-1.829c-1.115-.045-2.23-.134-3.346-.179a17.611,17.611,0,0,1-2.053-1.562c-2.543-1.606-9.1-5.086-10.977-.491-1.205,2.9,1.785,5.755,2.811,7.228a21.069,21.069,0,0,1,2.277,3.346c.311.758.4,1.562.713,2.365a53.406,53.406,0,0,0,2.32,5.979,21.447,21.447,0,0,0,1.65,2.767c.357.491.982.714,1.115,1.517-.625.893-.668,2.231-1.025,3.347-1.607,5.042-.982,11.288,1.293,14.991.715,1.115,2.41,3.569,4.686,2.632,2.008-.8,1.561-3.346,2.141-5.577.135-.535.045-.892.312-1.249v.089c.625,1.249,1.25,2.454,1.83,3.7a25.469,25.469,0,0,0,5.8,5.979c1.07.8,1.918,2.187,3.256,2.677v-.135h-.088A5,5,0,0,0,147,96.137a21.73,21.73,0,0,1-2.32-2.677,57.505,57.505,0,0,1-5-8.12c-.715-1.383-1.34-2.9-1.918-4.283-.27-.536-.27-1.339-.715-1.606a16.881,16.881,0,0,0-2.143,3.034c-.848,1.918-.936,4.283-1.248,6.737-.18.045-.09,0-.18.089-1.426-.356-1.918-1.829-2.453-3.078a19.3,19.3,0,0,1-.4-11.913c.312-.937,1.652-3.882,1.117-4.774-.27-.848-1.16-1.338-1.652-2.008a18.025,18.025,0,0,1-1.6-2.855c-1.07-2.5-1.605-5.265-2.766-7.764a23.826,23.826,0,0,0-2.232-3.435A22.15,22.15,0,0,1,121.029,50c-.223-.491-.535-1.294-.178-1.829a.71.71,0,0,1,.623-.58c.58-.491,2.232.134,2.812.4a22.8,22.8,0,0,1,4.416,2.23c.625.446,1.295,1.294,2.1,1.518h.938c1.428.312,3.033.089,4.371.49a28.566,28.566,0,0,1,6.426,3.079,39.578,39.578,0,0,1,13.92,15.259c.535,1.026.758,1.963,1.25,3.034.938,2.187,2.1,4.417,3.033,6.559a29.408,29.408,0,0,0,3.168,5.979c.67.937,3.346,1.427,4.551,1.918a31.886,31.886,0,0,1,3.08,1.249c1.516.937,3.033,2.008,4.461,3.034.713.534,2.945,1.649,3.078,2.541Z" fill="#00678c" fill-rule="evenodd"/>
  <path id="Path_83" data-name="Path 83" d="M133.566,56.114a7.046,7.046,0,0,0-1.828.223v.089h.088a14.319,14.319,0,0,0,1.428,1.829c.357.714.67,1.428,1.027,2.142l.088-.089a2.517,2.517,0,0,0,.938-2.231,9.936,9.936,0,0,1-.535-.937c-.268-.446-.848-.669-1.206-1.026Z" fill="#00678c" fill-rule="evenodd"/>
  <path id="Path_84" data-name="Path 84" d="M85.916,128.215h16.776a12.731,12.731,0,0,0,5.354-1.115c2.543-1.16,3.748-2.721,3.748-4.773v-4.283c0-1.65-1.383-3.213-4.148-4.283a14.606,14.606,0,0,0-4.953-.848H95.644c-2.365,0-3.48-.715-3.793-2.275a2.2,2.2,0,0,1-.044-.535V107.47a2.015,2.015,0,0,1,.044-.49c.312-1.205.937-1.518,2.99-1.74h17.177v-3.883H95.687a15.089,15.089,0,0,0-4.729.492C87.522,102.919,86,104.615,86,107.6V111c0,2.631,2.945,4.863,7.942,5.4.535.045,1.115.045,1.695.045h6.024a2.7,2.7,0,0,1,.623.045c1.83.178,2.633.49,3.168,1.158a1.357,1.357,0,0,1,.447,1.072V122.1a1.983,1.983,0,0,1-.8,1.383,4.168,4.168,0,0,1-2.5.8c-.223,0-.355.045-.58.045h-16.1v3.879Zm62.195-6.736c0,3.971,2.99,6.2,8.969,6.648.58.045,1.115.088,1.7.088h15.17v-3.881h-15.3c-3.393,0-4.686-.848-4.686-2.9V101.356H148.11v20.123h0Zm-32.615.177v-13.83c0-3.525,2.5-5.668,7.363-6.336.535-.045,1.07-.09,1.561-.09h11.064c.58,0,1.072.045,1.652.09,4.863.668,7.316,2.811,7.316,6.336v13.83c0,2.855-1.025,4.373-3.436,5.4l5.711,5.174h-6.736l-4.641-4.193-4.686.268h-6.246a13.658,13.658,0,0,1-3.391-.445c-3.7-1.028-5.531-2.991-5.531-6.2Zm6.291-.31a3.551,3.551,0,0,0,.135.58c.312,1.605,1.828,2.5,4.148,2.5h5.266l-4.818-4.373h6.736l4.238,3.838a2.789,2.789,0,0,0,1.473-1.875,2.514,2.514,0,0,0,.045-.58V108.182a2.159,2.159,0,0,0-.045-.535c-.312-1.516-1.828-2.363-4.1-2.363H126.07c-2.588,0-4.283,1.115-4.283,2.9v13.164Zm54.836,6.914h.848V125h1.115v-.67h-3.123V125h1.16v3.256Zm6.469,0h.8v-3.926h-1.2l-.982,2.678-1.07-2.678h-1.16v3.926h.758v-2.988h.045l1.115,2.988h.58l1.115-2.988v2.988h0Z" fill="#ce8b2c" fill-rule="evenodd"/>
</svg>
