<svg xmlns="http://www.w3.org/2000/svg" xmlns:xlink="http://www.w3.org/1999/xlink" width="157.565" height="153.65" viewBox="0 0 157.565 153.65">
  <defs>
    <radialGradient id="radial-gradient" cx="0.332" cy="0.223" r="0.781" gradientTransform="matrix(0.973, 0, 0, -0.968, -0.039, 2.633)" gradientUnits="objectBoundingBox">
      <stop offset="0" stop-color="#34364e" stop-opacity="0.98"/>
      <stop offset="1" stop-color="#0c0824"/>
    </radialGradient>
  </defs>
  <g id="photoshop" transform="translate(362.4 -472.5)">
    <path id="Path_4" data-name="Path 4" d="M-341.6,493.3h144.461V633.814H-341.6Z" transform="translate(-14.232 -14.232)" fill="url(#radial-gradient)"/>
    <path id="Path_5" data-name="Path 5" d="M-355.832,479.068h144.461V619.582H-355.832ZM-362.4,626.15h157.565V472.5H-362.4Zm106.254-90.592c-5.179,0-6.947,2.621-6.947,4.8,0,2.368,1.168,4.01,8.147,7.61,10.294,4.989,13.515,9.789,13.515,16.8,0,10.515-8.02,16.167-18.851,16.167-5.715,0-10.641-1.168-13.451-2.81-.474-.189-.537-.537-.537-1.042v-9.694c0-.663.316-.853.789-.537a24.477,24.477,0,0,0,13.2,3.884c5.178,0,7.357-2.179,7.357-5.115,0-2.368-1.516-4.452-8.147-7.894-9.315-4.452-13.2-8.968-13.2-16.546,0-8.462,6.631-15.5,18.125-15.5,5.652,0,9.6.853,11.746,1.831a1.431,1.431,0,0,1,.663,1.326v9c0,.537-.316.853-.979.663a22.319,22.319,0,0,0-11.431-2.937Zm-56.458,7.8c1.516.126,2.684.126,5.3.126,7.673,0,14.9-2.684,14.9-13.136,0-8.336-5.179-12.536-13.925-12.536-2.621,0-5.115.126-6.315.19l.032,25.356Zm-11.715-34.86c0-.474.916-.789,1.453-.789,4.2-.189,10.452-.316,16.925-.316,18.188,0,25.293,9.978,25.293,22.7,0,16.672-12.094,23.84-26.935,23.84-2.494,0-3.347-.126-5.115-.126v25.2c0,.537-.189.789-.789.789H-323.53c-.537,0-.789-.189-.789-.789V508.5Z" transform="translate(0)" fill="#31c5f0"/>
  </g>
</svg>
