<svg id="php" xmlns="http://www.w3.org/2000/svg" width="190.665" height="99.25" viewBox="0 0 190.665 99.25">
  <ellipse id="Ellipse_3" data-name="Ellipse 3" cx="95.333" cy="49.625" rx="95.333" ry="49.625" transform="translate(0 0)" fill="#8993be"/>
  <path id="Path_85" data-name="Path 85" d="M35.945,83.26l10.448-52.89H70.551C81,31.023,86.222,36.246,86.222,45.388c0,15.671-12.406,24.813-23.507,24.159H50.964L48.352,83.26Zm17.63-23.506L56.84,40.164h8.488c4.571,0,7.835,1.959,7.835,5.876-.652,11.1-5.876,13.06-11.753,13.713H53.576ZM83.8,69.547,94.242,16.658h12.407l-2.612,13.711H115.79c10.448.653,14.365,5.876,13.06,12.407l-4.571,26.771H111.22l4.571-24.159c.652-3.265.652-5.224-3.918-5.224h-9.795L96.2,69.547ZM123.442,83.26l10.447-52.89h24.159c10.448.653,15.672,5.876,15.672,15.019,0,15.671-12.407,24.813-23.507,24.159H138.46L135.848,83.26Zm17.629-23.506,3.265-19.589h8.489c4.571,0,7.835,1.959,7.835,5.876-.652,11.1-5.876,13.06-11.753,13.713h-7.836Z" transform="translate(-9.174 -4.251)" fill="#232531" fill-rule="evenodd"/>
</svg>
