<svg id="Layer_1" data-name="Layer 1" xmlns="http://www.w3.org/2000/svg" viewBox="0 0 279.97 253.11"><defs><style>.cls-1{fill:#fec86e;}.cls-2{fill:#fff;}.cls-3{fill:#ff7a7a;}</style></defs><title>posters2</title><path class="cls-1" d="M174.8,444c10.24,35,39.76,106.39,89.64,100,50-6.43,30.49-70.94,76.29-79.78,20.16-3.89,33.82,31,54,29.91,26-1.39,39.27-27.15,46.54-48.81,15.42-45.91-7.67-123.77-61.71-137.26-47.16-11.76-52.68,45.86-93.68,29.12-23-9.41-20.75-37.5-48.82-43.17C152.16,276.88,161.18,397.46,174.8,444Z" transform="translate(-166.01 -292.37)"/><rect class="cls-2" x="58.01" y="11.83" width="169.8" height="241.28" rx="14.19"/><path d="M379.64,310.19a8.2,8.2,0,0,1,8.18,8.19V531.29a8.19,8.19,0,0,1-8.18,8.19H238.21a8.19,8.19,0,0,1-8.19-8.19V318.38a8.2,8.2,0,0,1,8.19-8.19H379.64m0-6H238.21A14.19,14.19,0,0,0,224,318.38V531.29a14.19,14.19,0,0,0,14.19,14.19H379.64a14.18,14.18,0,0,0,14.18-14.19V318.38a14.19,14.19,0,0,0-14.18-14.19Z" transform="translate(-166.01 -292.37)"/><path d="M271.6,336.44c0-2,1.84-3.75,4.63-3.75h16.51c10.52,0,18.82,4.94,18.82,18.34v.4c0,13.4-8.61,18.5-19.62,18.5H284v17.23c0,2.55-3.11,3.83-6.22,3.83s-6.22-1.28-6.22-3.83V336.44Zm12.44,7.1v16.82h7.9c4.47,0,7.18-2.55,7.18-8v-.88c0-5.42-2.71-8-7.18-8Z" transform="translate(-166.01 -292.37)"/><path d="M316.34,372.65V351.51c0-13.72,8.54-18.82,19.54-18.82s19.62,5.1,19.62,18.82v21.14c0,13.71-8.61,18.82-19.62,18.82S316.34,386.36,316.34,372.65Zm26.72-21.14c0-5.5-2.71-8-7.18-8s-7.09,2.48-7.09,8v21.14c0,5.5,2.63,8,7.09,8s7.18-2.47,7.18-8Z" transform="translate(-166.01 -292.37)"/><path d="M295.53,438.12c0-9.65-25.28-8-25.28-26.64,0-12,10.44-16.51,20.41-16.51,4.23,0,15.88.8,15.88,7,0,2.15-1.44,6.54-5,6.54-2.87,0-4.39-3-10.93-3-5.66,0-8,2.31-8,4.78,0,8,25.28,6.46,25.28,26.56,0,11.48-8.37,17.7-19.94,17.7-10.45,0-19.22-5.1-19.22-10.36,0-2.72,2.39-6.7,5.43-6.7,3.74,0,6.14,5.9,13.55,5.9C291.46,443.38,295.53,441.94,295.53,438.12Z" transform="translate(-166.01 -292.37)"/><path class="cls-3" d="M348.64,395.45c2.64,0,3.75,2.87,3.75,5.5,0,3-1.35,5.66-3.75,5.66h-11v43.31c0,2.55-3.11,3.83-6.22,3.83s-6.22-1.28-6.22-3.83V406.61h-11c-2.39,0-3.75-2.63-3.75-5.66,0-2.63,1.12-5.5,3.75-5.5Z" transform="translate(-166.01 -292.37)"/><path class="cls-3" d="M284,482.53h12c2.39,0,3.75,2.31,3.75,4.87,0,2.15-1.12,4.7-3.75,4.7H284v13.56h21.38c2.39,0,3.75,2.55,3.75,5.5,0,2.55-1.12,5.35-3.75,5.35H277c-2.72,0-5.43-1.28-5.43-3.83V462c0-2.55,2.71-3.82,5.43-3.82h28.39c2.63,0,3.75,2.79,3.75,5.34,0,2.95-1.36,5.5-3.75,5.5H284Z" transform="translate(-166.01 -292.37)"/><path class="cls-3" d="M314.59,462a3.71,3.71,0,0,1,3.83-3.74h16.51c10.92,0,19.62,4.06,19.62,17.06,0,8.94-4.07,14-9.65,16.19l9.73,17.63a2.62,2.62,0,0,1,.4,1.43c0,3.11-4.15,6.46-7.82,6.46a4.24,4.24,0,0,1-4-2.31L332.3,493.46H327v19.22c0,2.55-3.11,3.82-6.22,3.82s-6.22-1.27-6.22-3.82V462Zm12.44,7.1v14.84h7.9c4.46,0,7.17-1.84,7.17-7.42s-2.71-7.42-7.17-7.42Z" transform="translate(-166.01 -292.37)"/></svg>