<svg id="Layer_1" data-name="Layer 1" xmlns="http://www.w3.org/2000/svg" viewBox="0 0 279.97 253.11"><defs><style>.cls-1{fill:#ffd99c;}.cls-2{fill:#fff;}.cls-3{fill:#4d0000;}.cls-4{fill:#ff7a7a;}</style></defs><title>posters1</title><path class="cls-1" d="M119.67,330.39c10.24,35,39.76,106.4,89.64,100s30.49-70.94,76.28-79.78c20.16-3.89,33.83,31,54,29.91,26-1.4,39.27-27.15,46.54-48.81,15.42-45.91-7.67-123.77-61.71-137.26-47.16-11.76-52.68,45.86-93.69,29.12-23-9.41-20.74-37.5-48.81-43.17C97,163.24,106,283.82,119.67,330.39Z" transform="translate(-110.88 -178.74)"/><rect class="cls-2" x="58.01" y="11.83" width="169.8" height="241.28" rx="14.19"/><path class="cls-3" d="M324.51,196.56a8.2,8.2,0,0,1,8.18,8.19V417.66a8.2,8.2,0,0,1-8.18,8.19H183.07a8.2,8.2,0,0,1-8.18-8.19V204.75a8.2,8.2,0,0,1,8.18-8.19H324.51m0-6H183.07a14.18,14.18,0,0,0-14.18,14.19V417.66a14.19,14.19,0,0,0,14.18,14.19H324.51a14.19,14.19,0,0,0,14.18-14.19V204.75a14.18,14.18,0,0,0-14.18-14.19Z" transform="translate(-110.88 -178.74)"/><path class="cls-3" d="M216.47,222.81c0-2,1.83-3.75,4.63-3.75h16.5c10.53,0,18.83,4.94,18.83,18.34v.4c0,13.4-8.62,18.5-19.62,18.5h-7.9v17.23c0,2.55-3.11,3.83-6.22,3.83s-6.22-1.28-6.22-3.83V222.8h0Zm12.44,7.09v16.83h7.9c4.46,0,7.18-2.55,7.18-8v-.88c0-5.42-2.72-8-7.18-8Z" transform="translate(-110.88 -178.74)"/><path class="cls-3" d="M261.21,259V237.88c0-13.72,8.53-18.82,19.54-18.82s19.62,5.1,19.62,18.82V259c0,13.72-8.61,18.83-19.62,18.83S261.21,272.73,261.21,259Zm26.72-21.13c0-5.5-2.71-8-7.18-8s-7.1,2.48-7.1,8V259c0,5.51,2.63,8,7.1,8s7.18-2.47,7.18-8Z" transform="translate(-110.88 -178.74)"/><path class="cls-3" d="M240.4,324.48c0-9.65-25.29-8-25.29-26.63,0-12,10.45-16.51,20.42-16.51,4.23,0,15.87.79,15.87,7,0,2.15-1.43,6.54-4.94,6.54-2.87,0-4.39-3-10.93-3-5.66,0-8,2.32-8,4.79,0,8,25.28,6.46,25.28,26.56,0,11.48-8.38,17.7-19.94,17.7-10.45,0-19.22-5.1-19.22-10.37,0-2.71,2.39-6.7,5.42-6.7,3.75,0,6.14,5.91,13.56,5.91C236.33,329.75,240.4,328.31,240.4,324.48Z" transform="translate(-110.88 -178.74)"/><path class="cls-4" d="M293.51,281.82c2.63,0,3.75,2.87,3.75,5.5,0,3-1.36,5.66-3.75,5.66h-11v43.31c0,2.55-3.12,3.83-6.23,3.83s-6.22-1.28-6.22-3.83V293h-11c-2.39,0-3.75-2.63-3.75-5.66,0-2.63,1.12-5.5,3.75-5.5Z" transform="translate(-110.88 -178.74)"/><path class="cls-4" d="M228.91,368.9h12c2.39,0,3.74,2.31,3.74,4.86,0,2.16-1.11,4.71-3.74,4.71h-12V392h21.38c2.39,0,3.74,2.55,3.74,5.5,0,2.55-1.11,5.34-3.74,5.34h-28.4c-2.71,0-5.42-1.27-5.42-3.82V348.4c0-2.55,2.71-3.83,5.42-3.83h28.4c2.63,0,3.74,2.8,3.74,5.35,0,2.95-1.35,5.5-3.74,5.5H228.91Z" transform="translate(-110.88 -178.74)"/><path class="cls-4" d="M259.46,348.32a3.71,3.71,0,0,1,3.83-3.75h16.5c10.93,0,19.62,4.07,19.62,17.07,0,8.93-4.06,14-9.65,16.19l9.73,17.63a2.58,2.58,0,0,1,.4,1.43c0,3.11-4.14,6.46-7.81,6.46a4.26,4.26,0,0,1-4-2.31l-10.93-21.22H271.9V399c0,2.56-3.11,3.83-6.22,3.83s-6.22-1.27-6.22-3.83V348.32Zm12.44,7.1v14.83h7.89c4.47,0,7.18-1.83,7.18-7.41s-2.71-7.42-7.18-7.42Z" transform="translate(-110.88 -178.74)"/></svg>