<svg id="Layer_1" data-name="Layer 1" xmlns="http://www.w3.org/2000/svg" xmlns:xlink="http://www.w3.org/1999/xlink" viewBox="0 0 250 250"><defs><style>.cls-1{fill:#4d0000;}.cls-2{fill:url(#linear-gradient);}.cls-3{fill:url(#linear-gradient-2);}.cls-4{fill:#563d7c;}.cls-5{fill:#fff;}.cls-6{fill:#53c1de;}</style><linearGradient id="linear-gradient" x1="-2681.8" y1="519.31" x2="-2681.4" y2="518.91" gradientTransform="matrix(104.23, 0, 0, -104.46, 279548.61, 54258.41)" gradientUnits="userSpaceOnUse"><stop offset="0" stop-color="#387eb8"/><stop offset="1" stop-color="#366994"/></linearGradient><linearGradient id="linear-gradient-2" x1="-2681.9" y1="519.39" x2="-2681.47" y2="518.98" gradientTransform="matrix(104.23, 0, 0, -104.46, 279576.73, 54295.38)" gradientUnits="userSpaceOnUse"><stop offset="0" stop-color="#ffe052"/><stop offset="1" stop-color="#ffc331"/></linearGradient></defs><title>Untitled-1</title><path class="cls-1" d="M225.5,237.17V244a2.1,2.1,0,0,1-.51,1.43,1.94,1.94,0,0,1-1.54.64H191.52a2.15,2.15,0,0,1-1.47-.52,2,2,0,0,1-.65-1.55V229.34a11.1,11.1,0,0,1,.49-3.29,10.88,10.88,0,0,1,1.32-2.82,11.16,11.16,0,0,1,2-2.32,12.83,12.83,0,0,1,2.5-1.73,12.54,12.54,0,0,1,2.84-1.09,12.17,12.17,0,0,1,7.41.44,12.38,12.38,0,0,1,3.84,2.31,12.09,12.09,0,0,1,2.72,3.62,10.69,10.69,0,0,1,1.08,4.71v5.89h9.83A2,2,0,0,1,225.5,237.17Zm-2,0Zm-.15,6.73v-6.74H211.5v-8a8.6,8.6,0,0,0-.86-3.78,9.66,9.66,0,0,0-2.24-3,10.09,10.09,0,0,0-3.17-1.91,10.22,10.22,0,0,0-3.65-.68,10.56,10.56,0,0,0-2.5.31,11.08,11.08,0,0,0-2.36.91,10.56,10.56,0,0,0-2.09,1.45,9,9,0,0,0-2.72,4.18,8.87,8.87,0,0,0-.39,2.66v14.57Zm-17-12.64v5.9h-9.76v-5.9a4.12,4.12,0,0,1,.46-2,4.75,4.75,0,0,1,2.69-2.32,5.22,5.22,0,0,1,3.49,0,4.84,4.84,0,0,1,1.55.88A4.44,4.44,0,0,1,206,229.3,4.29,4.29,0,0,1,206.42,231.27Zm-2.12,3.79v-3.79a2.35,2.35,0,0,0-.22-1,2.45,2.45,0,0,0-.6-.77,2.62,2.62,0,0,0-.88-.5,3.12,3.12,0,0,0-2.09,0,2.86,2.86,0,0,0-.88.51,2.56,2.56,0,0,0-.63.79,2.1,2.1,0,0,0-.23,1v3.79Z"/><path class="cls-1" d="M225.5,186.7v7.85a2.28,2.28,0,0,1-.44,1.33,2.14,2.14,0,0,1-1.08.76l-9.79,5.2v2h9.26A2,2,0,0,1,225.5,206v6.8a2.1,2.1,0,0,1-.51,1.43,1.94,1.94,0,0,1-1.54.63H191.52a2.2,2.2,0,0,1-1.47-.51,2,2,0,0,1-.65-1.55V198a12.22,12.22,0,0,1,1-4.83,12.57,12.57,0,0,1,2.61-3.92,12.2,12.2,0,0,1,3.87-2.64,11.64,11.64,0,0,1,4.73-1,11.34,11.34,0,0,1,3.27.47,11.85,11.85,0,0,1,2.88,1.29,12.43,12.43,0,0,1,2.43,2,13.36,13.36,0,0,1,1.31,1.61l10.23-5.43a7.45,7.45,0,0,0,.69-.38,2.61,2.61,0,0,1,1.29-.39,1.74,1.74,0,0,1,1.39.63A2.07,2.07,0,0,1,225.5,186.7Zm-2,19.28Zm-11.46,0v-5.4l11.14-5.93.14,0a.07.07,0,0,0,0-.06V187q-.4.24-.72.39l-12,6.36-.51-.89a10.76,10.76,0,0,0-1.55-2.07,10.11,10.11,0,0,0-2-1.63,10,10,0,0,0-2.38-1.06,9,9,0,0,0-2.66-.38,9.63,9.63,0,0,0-3.89.79,10.18,10.18,0,0,0-3.2,2.19,10.45,10.45,0,0,0-2.17,3.26,10.06,10.06,0,0,0-.8,4V212.7h31.86V206Zm-5.15-5.27V206H196.4v-4.22c0-.46,0-.89,0-1.28s.05-.79.08-1.22v-.08a5,5,0,0,1,.64-1.81,5.35,5.35,0,0,1,2.76-2.25,5.09,5.09,0,0,1,1.74-.32,5.84,5.84,0,0,1,1.76.28,5.11,5.11,0,0,1,1.58.84,4.8,4.8,0,0,1,1.2,1.37,4.7,4.7,0,0,1,.61,1.86c0,.27.06.53.07.75S206.92,200.4,206.92,200.7Zm-2.12,3.15V200.7c0-.25,0-.47,0-.66s0-.41-.06-.66a2.62,2.62,0,0,0-1-1.8,2.91,2.91,0,0,0-.94-.49,3.38,3.38,0,0,0-1.1-.18,2.86,2.86,0,0,0-1,.19,3.64,3.64,0,0,0-1,.54,3.11,3.11,0,0,0-.71.82,2.73,2.73,0,0,0-.36,1c0,.4,0,.79-.07,1.14s0,.75,0,1.16v2.1Z"/><path class="cls-1" d="M226,165.71a18.29,18.29,0,0,1-.66,4.94,18.09,18.09,0,0,1-1.87,4.43,18.64,18.64,0,0,1-6.63,6.65,17.86,17.86,0,0,1-4.42,1.87,18.68,18.68,0,0,1-18.08-4.76,18.55,18.55,0,0,1-2.91-3.76,19.23,19.23,0,0,1-1.86-4.42,18.55,18.55,0,0,1,0-9.88,19.2,19.2,0,0,1,1.86-4.44,18.87,18.87,0,0,1,2.9-3.76,18.4,18.4,0,0,1,3.78-2.91,19.49,19.49,0,0,1,4.43-1.86,18.58,18.58,0,0,1,9.89,0,18.75,18.75,0,0,1,4.41,1.87,18,18,0,0,1,3.74,2.9,18.82,18.82,0,0,1,2.89,3.76,18,18,0,0,1,1.87,4.44A18.38,18.38,0,0,1,226,165.71Zm-35,0a16.17,16.17,0,0,0,.59,4.37,16.52,16.52,0,0,0,1.66,3.93,15.82,15.82,0,0,0,2.56,3.32,16.39,16.39,0,0,0,3.35,2.57,16.61,16.61,0,0,0,12.68,1.66,15.89,15.89,0,0,0,3.9-1.65,16.54,16.54,0,0,0,5.89-5.9,16.53,16.53,0,0,0,0-16.6,17,17,0,0,0-2.58-3.34,16.36,16.36,0,0,0-3.3-2.57,17,17,0,0,0-3.92-1.65,16.44,16.44,0,0,0-8.73,0,16.84,16.84,0,0,0-4,1.66,16.26,16.26,0,0,0-5.9,5.9,16.6,16.6,0,0,0-1.66,3.94A16.21,16.21,0,0,0,191,165.71Zm26.54,0a9.6,9.6,0,0,1-.79,3.9,9.43,9.43,0,0,1-2.16,3.07,10.1,10.1,0,0,1-3.22,2,11.18,11.18,0,0,1-7.84,0,10.05,10.05,0,0,1-3.24-2,9.59,9.59,0,0,1,0-14,10.12,10.12,0,0,1,3.23-2,11.2,11.2,0,0,1,7.85,0,9.92,9.92,0,0,1,3.21,2,9.5,9.5,0,0,1,2.17,3.09A9.69,9.69,0,0,1,217.56,165.71Zm-18.12,0a7.19,7.19,0,0,0,2.32,5.43,7.89,7.89,0,0,0,2.55,1.58,9,9,0,0,0,6.31,0,7.8,7.8,0,0,0,2.53-1.58,7.23,7.23,0,0,0,1.68-2.39,7.5,7.5,0,0,0,.61-3,7.63,7.63,0,0,0-.61-3.06,7.28,7.28,0,0,0-1.68-2.39,7.48,7.48,0,0,0-2.53-1.58,9,9,0,0,0-6.31,0,7.89,7.89,0,0,0-2.55,1.58,7.23,7.23,0,0,0-1.7,2.4A7.42,7.42,0,0,0,199.44,165.71Z"/><path class="cls-1" d="M234.92,140.58a13,13,0,0,1-.32,2.85,12.34,12.34,0,0,1-1,2.67,11.7,11.7,0,0,1-1.59,2.37,11.18,11.18,0,0,1-2.07,1.86,1.59,1.59,0,0,1-1.07.32,2,2,0,0,1-1.68-.73l-3.72-4a2.72,2.72,0,0,1-.41-.61,2,2,0,0,1,.27-2.18l.56-.69a3.47,3.47,0,0,0,.44-.68,1.74,1.74,0,0,0,.14-.74,1.55,1.55,0,0,0-.13-.63,2,2,0,0,0-.35-.57,1.71,1.71,0,0,0-.5-.37,1.18,1.18,0,0,0-.53-.12H191.38a1.87,1.87,0,0,1-2-1.87v-6.81a2.11,2.11,0,0,1,2.25-2.29H223a11.1,11.1,0,0,1,4.69,1,12.19,12.19,0,0,1,6.31,6.53A11.94,11.94,0,0,1,234.92,140.58Zm-6.08,7.95a8.85,8.85,0,0,0,1.6-1.45,9.61,9.61,0,0,0,1.3-1.93,9.77,9.77,0,0,0,.79-2.2,10.44,10.44,0,0,0,.27-2.37,10,10,0,0,0-.76-3.85,10.28,10.28,0,0,0-5.24-5.43,9.23,9.23,0,0,0-3.81-.8H191.53s0,.09,0,.16v6.56H223a3.3,3.3,0,0,1,1.46.34,3.67,3.67,0,0,1,1.14.84,4.09,4.09,0,0,1,.74,1.2,3.84,3.84,0,0,1-.08,3.11,5.26,5.26,0,0,1-.69,1.08l-.53.66.06.08,3.74,4Zm-3.86-4Z"/><path class="cls-1" d="M225.5,97.82V121a2.1,2.1,0,0,1-.51,1.43,2,2,0,0,1-1.54.64H191.52a2.18,2.18,0,0,1-1.49-.54,2,2,0,0,1-.63-1.53V98.26A2.05,2.05,0,0,1,190,96.7a2.18,2.18,0,0,1,1.52-.55h5.66a2.25,2.25,0,0,1,1.39.49,2,2,0,0,1,.76,1.64v13.77h3.55V101.67a2.22,2.22,0,0,1,.41-1.34,1.82,1.82,0,0,1,1.55-.73h4.94a2,2,0,0,1,1.3.5,1.93,1.93,0,0,1,.67,1.54v10.41h3.74V97.73a2,2,0,0,1,2.11-2.09h5.75a1.59,1.59,0,0,1,.89.28A1.83,1.83,0,0,1,225.5,97.82Zm-2.12,23.08v-23l-.08,0-.13-.12h-5.52v16.4h-8V101.72H205v12.44h-7.79V98.28h-5.73V120.9Z"/><path class="cls-1" d="M226,74.92a18.29,18.29,0,0,1-.66,4.94,18.09,18.09,0,0,1-1.87,4.43,18.51,18.51,0,0,1-6.63,6.64,18.27,18.27,0,0,1-4.42,1.88,19.06,19.06,0,0,1-9.87,0,19,19,0,0,1-4.44-1.87,18.73,18.73,0,0,1-3.77-2.9,18.22,18.22,0,0,1-2.91-3.75,19.42,19.42,0,0,1-1.86-4.42,18,18,0,0,1-.67-5,18.34,18.34,0,0,1,.81-5.5A18.88,18.88,0,0,1,192,64.59a2.43,2.43,0,0,1,1-1,1.94,1.94,0,0,1,1.82.06l.07,0,5.54,3.9a1.87,1.87,0,0,1,.89,1.21,2,2,0,0,1-.33,1.46l0,.08a7.62,7.62,0,0,0-1.55,4.69,7.19,7.19,0,0,0,2.31,5.4,8,8,0,0,0,2.55,1.58,8.76,8.76,0,0,0,3.14.57,8.65,8.65,0,0,0,3.12-.57,8.18,8.18,0,0,0,2.53-1.57,7.73,7.73,0,0,0,1.69-2.39,7.44,7.44,0,0,0,.61-3,8,8,0,0,0-.41-2.54,7.54,7.54,0,0,0-1.16-2.19l-.06-.09a2,2,0,0,1-.34-1.41,1.94,1.94,0,0,1,.82-1.23l0,0L220,63.65l.07,0a1.9,1.9,0,0,1,1.82,0,2.5,2.5,0,0,1,1,.94,19.36,19.36,0,0,1,2.34,4.87A18.24,18.24,0,0,1,226,74.92Zm-35,0a16.17,16.17,0,0,0,.59,4.37,16.52,16.52,0,0,0,1.66,3.93,15.82,15.82,0,0,0,2.56,3.32,17.13,17.13,0,0,0,3.35,2.57,16.65,16.65,0,0,0,12.68,1.65,15.89,15.89,0,0,0,3.9-1.65,16.62,16.62,0,0,0,5.89-5.89,16.3,16.3,0,0,0,2.23-8.3,16.15,16.15,0,0,0-.74-4.9,17.26,17.26,0,0,0-2.1-4.37l0-.05,0-.07-5.33,3.7a9.85,9.85,0,0,1,1.88,5.85,9.43,9.43,0,0,1-.8,3.89A9.34,9.34,0,0,1,214.53,82a9.74,9.74,0,0,1-3.19,2,10.72,10.72,0,0,1-3.9.72,10.61,10.61,0,0,1-3.91-.72,10,10,0,0,1-3.22-2,9.36,9.36,0,0,1-3-7,10,10,0,0,1,.51-3.2,9.86,9.86,0,0,1,1.33-2.58l-5.25-3.7-.06.09,0,0a17,17,0,0,0-2.07,4.32A16,16,0,0,0,191,74.92Zm8.27-5.83Z"/><path class="cls-1" d="M225.5,44v6.71a2.14,2.14,0,0,1-.59,1.44,2,2,0,0,1-1.55.69h-24v6.81a2.1,2.1,0,0,1-.59,1.5,2.18,2.18,0,0,1-1.63.63h-5.68a2,2,0,0,1-1.53-.66,2.2,2.2,0,0,1-.54-1.47V35a2.23,2.23,0,0,1,.48-1.38,2,2,0,0,1,1.49-.77h5.78a2.25,2.25,0,0,1,1.42.51,2,2,0,0,1,.8,1.65v6.83h24a2.16,2.16,0,0,1,1.45.57A2,2,0,0,1,225.5,44Zm-2.12,6.67Zm0,0V44H197.25V35a.21.21,0,0,0-.1,0h-5.62a.06.06,0,0,0,0,0V59.62h5.73V50.69h26.1ZM197.25,35Zm-5.8,24.67Z"/><path class="cls-1" d="M225.93,18.05a15.9,15.9,0,0,1-1,5.54,21.15,21.15,0,0,1-2.65,5,14,14,0,0,1-1.43,1.68l-1,1-.13.13,0,0,0,0-.06.06,0,0a2.47,2.47,0,0,1-1.63.8,2.23,2.23,0,0,1-1.65-.86l-3.82-4,0-.06a2.41,2.41,0,0,1-.54-1.4,1.9,1.9,0,0,1,.28-1,5.7,5.7,0,0,1,.51-.68c.22-.27.51-.6.88-1a14,14,0,0,0,1-1.27,10.62,10.62,0,0,0,1.1-2.1,5.73,5.73,0,0,0,.36-2,5.53,5.53,0,0,0-.2-1.62,2.23,2.23,0,0,0-.47-.86,1.5,1.5,0,0,0-.57-.38,2.78,2.78,0,0,0-.87-.13.72.72,0,0,0-.54.24,4.59,4.59,0,0,0-.8,1.07,9.32,9.32,0,0,0-.67,1.47c-.2.54-.37,1-.51,1.43a35.25,35.25,0,0,1-2.14,5,15.67,15.67,0,0,1-2.65,3.67,10.28,10.28,0,0,1-3.34,2.29,10.4,10.4,0,0,1-4,.77,9.7,9.7,0,0,1-4.33-1,9.4,9.4,0,0,1-3.34-2.75A12.76,12.76,0,0,1,189.39,23a18.45,18.45,0,0,1-.72-5.32,17.9,17.9,0,0,1,.5-4.24,16.13,16.13,0,0,1,1.6-4l0,0c.31-.54.65-1.06,1-1.55s.69-.93,1-1.31a7.21,7.21,0,0,1,1-1A2.25,2.25,0,0,1,195.18,5a2.07,2.07,0,0,1,1.08.3,4.39,4.39,0,0,1,.76.58l3.76,3.53a2.14,2.14,0,0,1,.69,1.53h0a2.07,2.07,0,0,1-.37,1.19,7.76,7.76,0,0,1-.52.66l-.19.21c-.24.29-.49.61-.75.95A7.62,7.62,0,0,0,199,15a7.17,7.17,0,0,0-.48,1.17,4,4,0,0,0-.17,1.13,6.75,6.75,0,0,0,.11,1.22,2.9,2.9,0,0,0,.29.86,1.17,1.17,0,0,0,.37.42.93.93,0,0,0,.5.12.9.9,0,0,0,.51-.13,2,2,0,0,0,.57-.65,8,8,0,0,0,.66-1.4c.23-.61.49-1.34.76-2.17.54-1.64,1.12-3.17,1.71-4.56a16.25,16.25,0,0,1,2.23-3.78,9.71,9.71,0,0,1,3.22-2.6,10.06,10.06,0,0,1,4.53-1,11.11,11.11,0,0,1,5,1.14A11.66,11.66,0,0,1,222.68,8a14.38,14.38,0,0,1,2.41,4.56A17.81,17.81,0,0,1,225.93,18.05Zm-7.61,11.69,0,0c.25-.23.58-.55,1-1a11.36,11.36,0,0,0,1.19-1.41,18.72,18.72,0,0,0,2.39-4.48,13.75,13.75,0,0,0,.87-4.8,15.8,15.8,0,0,0-.74-4.89,12.07,12.07,0,0,0-2-3.88,9.26,9.26,0,0,0-3.13-2.54,9,9,0,0,0-4.09-.92,8,8,0,0,0-3.58.72,7.62,7.62,0,0,0-2.52,2,14.41,14.41,0,0,0-1.93,3.29c-.57,1.33-1.13,2.8-1.65,4.39-.28.85-.54,1.6-.78,2.24a9.89,9.89,0,0,1-.85,1.78,4.3,4.3,0,0,1-1.17,1.28,3.19,3.19,0,0,1-3.38,0,3.26,3.26,0,0,1-1.06-1.18,5.07,5.07,0,0,1-.52-1.48,9.19,9.19,0,0,1-.14-1.61,6.13,6.13,0,0,1,.26-1.75,9.83,9.83,0,0,1,.63-1.53,9.11,9.11,0,0,1,.83-1.34c.28-.39.57-.75.84-1.08l.2-.22c.13-.15.25-.3.35-.44l0,0-3.72-3.49-.35-.29-.12.08a4.83,4.83,0,0,0-.7.68c-.28.32-.58.71-.89,1.14s-.6.9-.89,1.39a14.2,14.2,0,0,0-1.39,3.49,15.83,15.83,0,0,0-.44,3.74,16.37,16.37,0,0,0,.63,4.71,10.6,10.6,0,0,0,1.73,3.48,7.3,7.3,0,0,0,6,2.9,8.3,8.3,0,0,0,3.23-.6A8.45,8.45,0,0,0,205,26.32a13.6,13.6,0,0,0,2.28-3.19,32.7,32.7,0,0,0,2-4.65c.13-.41.31-.91.51-1.48a12.49,12.49,0,0,1,.82-1.78,7,7,0,0,1,1.18-1.56,2.84,2.84,0,0,1,2-.83,4.71,4.71,0,0,1,1.55.25,3.49,3.49,0,0,1,1.43.92,4.39,4.39,0,0,1,.94,1.65,7.33,7.33,0,0,1,.31,2.29,7.81,7.81,0,0,1-.5,2.77,13.07,13.07,0,0,1-1.32,2.53,14.74,14.74,0,0,1-1.16,1.5l-.83,1v0A3.38,3.38,0,0,0,214,26a.35.35,0,0,1,.06.09L217.81,30l.09.1L218,30a.86.86,0,0,1,.13-.14Z"/><g id="python"><path id="Path_91" data-name="Path 91" class="cls-2" d="M57.18,3.7C35.65,3.7,37,13,37,13l0,9.67H57.57v2.91H28.86S15.08,24.05,15.08,45.78s12,21,12,21h7.17V56.65s-.38-12,11.84-12H66.5S78,44.81,78,33.56V15S79.69,3.7,57.18,3.7ZM45.85,10.2a3.7,3.7,0,1,1-2.61,1.09A3.66,3.66,0,0,1,45.85,10.2Z"/><path id="Path_92" data-name="Path 92" class="cls-3" d="M57.79,88.08C79.32,88.08,78,78.74,78,78.74l0-9.68H57.41v-2.9H86.12S99.9,67.72,99.9,46s-12-21-12-21H80.69V35.12s.39,12-11.83,12H48.48S37,47,37,58.22v18.6S35.29,88.08,57.8,88.08Zm11.33-6.51a3.69,3.69,0,1,1,2.62-1.08A3.7,3.7,0,0,1,69.12,81.57Z"/></g><path id="Path_9" data-name="Path 9" class="cls-4" d="M15.08,237.16a9.14,9.14,0,0,0,9.14,9.14H76.83A9.14,9.14,0,0,0,86,237.16h0V184.55a9.14,9.14,0,0,0-9.14-9.14H24.22a9.14,9.14,0,0,0-9.14,9.14h0v52.61Z"/><path id="Path_10" data-name="Path 10" class="cls-5" d="M44.48,206.77v-10h8.83a12.44,12.44,0,0,1,2.44.21,5.92,5.92,0,0,1,2.07.75,3.94,3.94,0,0,1,1.45,1.5,5.13,5.13,0,0,1,.54,2.47,4.51,4.51,0,0,1-1.63,3.9A6.73,6.73,0,0,1,54,206.77ZM35,189.39v42.93h20.8a21.72,21.72,0,0,0,5.62-.73,14.84,14.84,0,0,0,4.87-2.22,10.86,10.86,0,0,0,3.4-3.88A11.78,11.78,0,0,0,71,219.87,11.9,11.9,0,0,0,69,213a10.31,10.31,0,0,0-5.93-4,10.63,10.63,0,0,0,4.36-3.55A9.41,9.41,0,0,0,69,200,11.58,11.58,0,0,0,68,195a8.19,8.19,0,0,0-2.79-3.27,12.26,12.26,0,0,0-4.33-1.78,27.59,27.59,0,0,0-5.59-.54ZM44.48,225V213.2H54.76a8,8,0,0,1,4.93,1.41c1.24.94,1.86,2.52,1.86,4.72A5.92,5.92,0,0,1,61,222.1a4.58,4.58,0,0,1-1.53,1.71,6.46,6.46,0,0,1-2.23.9,11.72,11.72,0,0,1-2.64.27Z"/><g id="react"><path id="Path_59" data-name="Path 59" class="cls-5" d="M34.37,130.27c0,10.46,10.21,20.21,26.3,25.72-3.21,16.17-.58,29.21,8.24,34.3,9,5.22,22.54,1.6,35.35-9.59,12.48,10.74,25.1,15,33.9,9.88,9.05-5.24,11.8-19.17,8.5-35.85,16.76-5.54,26.14-13.86,26.14-24.46,0-10.21-10.23-19-26.11-24.51,3.56-17.37.55-30.09-8.63-35.39-8.85-5.09-21.61-.65-34.27,10.37C90.61,69,78,65.47,68.81,70.77c-8.84,5.12-11.36,18.4-8.14,34.88C45.12,111.07,34.37,120.1,34.37,130.27Z"/><path id="Path_60" data-name="Path 60" class="cls-6" d="M143.33,111.19c-1.31-.45-2.63-.87-4-1.25.22-.9.43-1.8.61-2.7,3-14.54,1-26.26-5.65-30.11-6.42-3.7-16.9.16-27.5,9.37-1,.91-2.06,1.85-3.06,2.81-.66-.63-1.34-1.26-2-1.88-11.1-9.86-22.23-14-28.91-10.14C66.42,81,64.52,92,67.22,105.79c.27,1.37.57,2.72.91,4.07-1.58.45-3.1.93-4.55,1.44-13,4.53-21.33,11.64-21.33,19,0,7.62,8.92,15.26,22.48,19.9,1.1.37,2.21.71,3.33,1-.37,1.46-.69,2.92-1,4.39-2.57,13.54-.56,24.29,5.83,28,6.6,3.81,17.68-.11,28.46-9.53.85-.75,1.71-1.54,2.57-2.37,1.08,1,2.18,2.05,3.32,3,10.45,9,20.77,12.62,27.15,8.93,6.59-3.82,8.74-15.37,6-29.42-.21-1.08-.45-2.17-.73-3.29.77-.23,1.54-.47,2.28-.72,14.1-4.67,23.27-12.21,23.27-19.94,0-7.4-8.58-14.56-21.86-19.13Z"/><path id="Path_61" data-name="Path 61" class="cls-5" d="M140.27,145.28c-.67.22-1.36.43-2.06.64A122.38,122.38,0,0,0,132,130.35,122.88,122.88,0,0,0,138,115c1.25.37,2.47.75,3.65,1.15,11.38,3.92,18.32,9.71,18.32,14.17,0,4.75-7.5,10.92-19.66,15Zm-5.05,10a44.38,44.38,0,0,1,.59,16.23c-.73,3.94-2.2,6.57-4,7.63-3.88,2.24-12.16-.67-21.1-8.37-1-.88-2-1.82-3.09-2.81a123.85,123.85,0,0,0,10.31-13.09,121.79,121.79,0,0,0,16.65-2.57c.25,1,.47,2,.66,3ZM84.16,178.75c-3.78,1.34-6.8,1.37-8.62.32-3.88-2.23-5.49-10.87-3.29-22.45q.39-2.06.9-4.08a123.27,123.27,0,0,0,16.56,2.4,128.27,128.27,0,0,0,10.56,13c-.77.74-1.55,1.45-2.35,2.15a44.44,44.44,0,0,1-13.76,8.62Zm-17.73-33.5a44.34,44.34,0,0,1-14.34-7.62c-3.05-2.61-4.58-5.2-4.58-7.31,0-4.48,6.67-10.19,17.8-14.07,1.4-.48,2.81-.92,4.23-1.33a127,127,0,0,0,6,15.53,127.19,127.19,0,0,0-6.07,15.74c-1-.29-2-.6-3-.95Zm5.94-40.46c-2.31-11.81-.77-20.72,3.09-23,4.11-2.38,13.21,1,22.79,9.52.61.55,1.23,1.12,1.85,1.71a125.11,125.11,0,0,0-10.48,13,129.72,129.72,0,0,0-16.4,2.55c-.32-1.25-.6-2.52-.85-3.79Zm53,13.09q-1.8-3.12-3.74-6.15c3.92.5,7.68,1.15,11.21,2-1.13,3.59-2.45,7.13-3.93,10.59Q127.23,121,125.4,117.88ZM103.78,96.82a112,112,0,0,1,7.23,8.73q-7.26-.35-14.53,0c2.39-3.15,4.84-6.07,7.3-8.73ZM82,117.91q-1.8,3.15-3.47,6.36c-1.53-3.63-2.83-7.19-3.9-10.64,3.5-.78,7.25-1.42,11.15-1.91-1.31,2-2.56,4.1-3.77,6.2Zm3.88,31.38a111.76,111.76,0,0,1-11.33-1.82c1.09-3.5,2.43-7.15,4-10.85Q80.22,139.85,82,143t3.86,6.31Zm18,14.91c-2.49-2.69-5-5.66-7.39-8.86,2.35.1,4.75.14,7.19.14s5,0,7.42-.16a111.47,111.47,0,0,1-7.22,8.88ZM129,136.43a112.08,112.08,0,0,1,4.13,10.82,111.65,111.65,0,0,1-11.47,1.95q1.95-3.09,3.77-6.26t3.57-6.51Zm-8.12,3.89q-2.79,4.86-5.89,9.52c-3.65.26-7.42.4-11.26.4s-7.54-.12-11.13-.35q-3.18-4.65-6-9.53t-5.24-9.91q2.43-5.05,5.23-9.91h0q2.79-4.86,6-9.49c3.66-.28,7.41-.42,11.19-.42s7.56.15,11.22.42q3.12,4.62,5.92,9.46t5.3,9.87q-2.46,5.06-5.28,10Zm10.84-58.64c4.11,2.37,5.71,11.95,3.13,24.5-.17.82-.36,1.63-.56,2.45a124.82,124.82,0,0,0-16.43-2.6,123.46,123.46,0,0,0-10.39-13c.92-.89,1.86-1.75,2.82-2.59,9.08-7.9,17.56-11,21.43-8.79Z"/><path id="Path_62" data-name="Path 62" class="cls-6" d="M103.72,119.34a11,11,0,1,1-11,11h0a11,11,0,0,1,11-11"/></g></svg>