<svg id="Layer_1" data-name="Layer 1" xmlns="http://www.w3.org/2000/svg" viewBox="0 0 279.97 252.05"><defs><style>.cls-1{fill:#fec86e;}.cls-2{fill:#edf4fc;}.cls-3{fill:#4d0000;}.cls-4{fill:#ff7a7a;}.cls-5{fill:#fff;}</style></defs><title>projects2</title><path class="cls-1" d="M72,547.66c10.24,35,39.76,106.39,89.64,100s30.49-70.94,76.28-79.78c20.16-3.89,33.83,31,54,29.92,26-1.4,39.27-27.16,46.54-48.81,15.42-45.92-7.67-123.78-61.71-137.26-47.16-11.77-52.68,45.85-93.68,29.11-23.05-9.4-20.75-37.5-48.82-43.16C49.31,380.51,58.32,501.09,72,547.66Z" transform="translate(-63.16 -396)"/><path class="cls-2" d="M252.7,496.49V587.4a4,4,0,0,1-4,4h-37.1v35.1a4,4,0,0,0,4,4H311a4,4,0,0,0,4-4v-130Z" transform="translate(-63.16 -396)"/><path class="cls-3" d="M311,480.66H252.7v15.83H315V484.67A4,4,0,0,0,311,480.66Z" transform="translate(-63.16 -396)"/><path class="cls-4" d="M302.77,599.63H223.85a2.34,2.34,0,0,0-2.34,2.34v16.21a2.35,2.35,0,0,0,2.34,2.35h78.92a2.35,2.35,0,0,0,2.35-2.35V602A2.35,2.35,0,0,0,302.77,599.63Z" transform="translate(-63.16 -396)"/><path class="cls-4" d="M302.77,569.33H252.7V587.4a4,4,0,0,1-1.18,2.84h51.25a2.35,2.35,0,0,0,2.35-2.35V571.68A2.35,2.35,0,0,0,302.77,569.33Z" transform="translate(-63.16 -396)"/><path class="cls-4" d="M302.77,539H252.7v20.9h50.07a2.35,2.35,0,0,0,2.35-2.34V541.38A2.35,2.35,0,0,0,302.77,539Z" transform="translate(-63.16 -396)"/><path class="cls-4" d="M302.77,508.75H252.7v20.9h50.07a2.35,2.35,0,0,0,2.35-2.34V511.09a2.35,2.35,0,0,0-2.35-2.34Z" transform="translate(-63.16 -396)"/><path class="cls-5" d="M190.37,457.38v90.9a4,4,0,0,1-4,4H149.26V587.4a4,4,0,0,0,4,4h95.42a4,4,0,0,0,4-4v-130Z" transform="translate(-63.16 -396)"/><path d="M242.33,599.63H223.85a2.34,2.34,0,0,0-2.34,2.34v16.21a2.35,2.35,0,0,0,2.34,2.35h18.48Z" transform="translate(-63.16 -396)"/><path class="cls-4" d="M86.93,418.26v130a4,4,0,0,0,4,4h95.41a4,4,0,0,0,4-4v-130Z" transform="translate(-63.16 -396)"/><path class="cls-3" d="M248.69,441.54H190.37v15.84H252.7V445.55a4,4,0,0,0-4-4Z" transform="translate(-63.16 -396)"/><path class="cls-4" d="M165.24,569.65h19.68a2,2,0,0,0,2-2V552.23a3.19,3.19,0,0,1-.54.06H163.27v15.39a2,2,0,0,0,2,2Z" transform="translate(-63.16 -396)"/><path class="cls-5" d="M100.69,479h75.92a3.07,3.07,0,0,0,3.07-3.07v-8.31a3.07,3.07,0,0,0-3.07-3.07H100.69a3.06,3.06,0,0,0-3.07,3.07V476A3.07,3.07,0,0,0,100.69,479Z" transform="translate(-63.16 -396)"/><path class="cls-5" d="M176.61,488.2H100.69a3.06,3.06,0,0,0-3.07,3.06v8.32a3.07,3.07,0,0,0,3.07,3.07h75.92a3.08,3.08,0,0,0,3.07-3.07v-8.32A3.07,3.07,0,0,0,176.61,488.2Z" transform="translate(-63.16 -396)"/><path d="M146.62,512.92H130.68a6.46,6.46,0,1,0,0,12.91h15.94a6.46,6.46,0,1,0,0-12.91Z" transform="translate(-63.16 -396)"/><path d="M114.19,488.2h-13.5a3.06,3.06,0,0,0-3.07,3.06v8.32a3.07,3.07,0,0,0,3.07,3.07h13.5Z" transform="translate(-63.16 -396)"/><path d="M114.19,464.57h-13.5a3.06,3.06,0,0,0-3.07,3.07V476a3.07,3.07,0,0,0,3.07,3.07h13.5Z" transform="translate(-63.16 -396)"/><path class="cls-3" d="M186.35,402.42H90.94a4,4,0,0,0-4,4v11.82H190.37V406.44A4,4,0,0,0,186.35,402.42Z" transform="translate(-63.16 -396)"/><path class="cls-3" d="M103.9,402.42h-13a4,4,0,0,0-4,4v11.82h17Z" transform="translate(-63.16 -396)"/><path d="M311,632.8H215.6a6.29,6.29,0,0,1-6.28-6.29V592a2.27,2.27,0,0,1,4.54,0v34.47a1.75,1.75,0,0,0,1.74,1.74H311a1.74,1.74,0,0,0,1.74-1.74v-130a2.27,2.27,0,0,1,4.54,0v130A6.29,6.29,0,0,1,311,632.8Z" transform="translate(-63.16 -396)"/><path class="cls-5" d="M163.6,412.61H114.45a2.27,2.27,0,1,1,0-4.54H163.6a2.27,2.27,0,1,1,0,4.54Z" transform="translate(-63.16 -396)"/><path class="cls-5" d="M181.54,412.61h-8.21a2.27,2.27,0,1,1,0-4.54h8.21a2.27,2.27,0,0,1,0,4.54Z" transform="translate(-63.16 -396)"/><path class="cls-5" d="M225.93,451.73H191.32a2.27,2.27,0,1,1,0-4.54h34.61a2.27,2.27,0,1,1,0,4.54Z" transform="translate(-63.16 -396)"/><path class="cls-5" d="M243.87,451.73h-8.21a2.27,2.27,0,1,1,0-4.54h8.21a2.27,2.27,0,1,1,0,4.54Z" transform="translate(-63.16 -396)"/><path class="cls-5" d="M288.26,490.85h-34.6a2.28,2.28,0,1,1,0-4.55h34.6a2.28,2.28,0,0,1,0,4.55Z" transform="translate(-63.16 -396)"/><path class="cls-5" d="M306.2,490.85H298a2.28,2.28,0,0,1,0-4.55h8.21a2.28,2.28,0,0,1,0,4.55Z" transform="translate(-63.16 -396)"/><path d="M240.74,481.3h-41a2.27,2.27,0,1,1,0-4.54h41a2.27,2.27,0,1,1,0,4.54Z" transform="translate(-63.16 -396)"/><path d="M240.74,490.7h-41a2.27,2.27,0,1,1,0-4.54h41a2.27,2.27,0,1,1,0,4.54Z" transform="translate(-63.16 -396)"/><path d="M240.74,500.11h-41a2.28,2.28,0,0,1,0-4.55h41a2.28,2.28,0,0,1,0,4.55Z" transform="translate(-63.16 -396)"/><path d="M240.74,516.74h-41a2.27,2.27,0,0,1,0-4.54h41a2.27,2.27,0,0,1,0,4.54Z" transform="translate(-63.16 -396)"/><path d="M240.74,526.15h-41a2.28,2.28,0,0,1,0-4.55h41a2.28,2.28,0,0,1,0,4.55Z" transform="translate(-63.16 -396)"/><path d="M240.74,535.55h-41a2.28,2.28,0,0,1,0-4.55h41a2.28,2.28,0,0,1,0,4.55Z" transform="translate(-63.16 -396)"/><path d="M240.74,550.37h-41a2.28,2.28,0,0,1,0-4.55h41a2.28,2.28,0,0,1,0,4.55Z" transform="translate(-63.16 -396)"/><path d="M240.74,559.77h-41a2.27,2.27,0,0,1,0-4.54h41a2.27,2.27,0,0,1,0,4.54Z" transform="translate(-63.16 -396)"/><path d="M240.74,569.17h-41a2.27,2.27,0,0,1,0-4.54h41a2.27,2.27,0,0,1,0,4.54Z" transform="translate(-63.16 -396)"/><path d="M152.07,447.67H125.23a2.27,2.27,0,1,1,0-4.54h26.84a2.27,2.27,0,0,1,0,4.54Z" transform="translate(-63.16 -396)"/><path d="M315,498.77H253.26a2.28,2.28,0,0,1,0-4.55h59.5v-9.55a1.74,1.74,0,0,0-1.74-1.74H253.43a2.27,2.27,0,0,1,0-4.54H311a6.29,6.29,0,0,1,6.28,6.28v11.82A2.28,2.28,0,0,1,315,498.77Z" transform="translate(-63.16 -396)"/><path d="M248.69,593.68H153.27A6.29,6.29,0,0,1,147,587.4V553.28a2.27,2.27,0,0,1,4.54,0V587.4a1.74,1.74,0,0,0,1.74,1.73h95.42a1.75,1.75,0,0,0,1.74-1.73v-130a2.27,2.27,0,0,1,4.54,0v130A6.29,6.29,0,0,1,248.69,593.68Z" transform="translate(-63.16 -396)"/><path d="M186.35,554.56H90.94a6.29,6.29,0,0,1-6.28-6.28v-130a2.27,2.27,0,1,1,4.54,0v130A1.74,1.74,0,0,0,90.94,550h95.41a1.74,1.74,0,0,0,1.74-1.74v-130a2.28,2.28,0,0,1,4.55,0v130A6.29,6.29,0,0,1,186.35,554.56Z" transform="translate(-63.16 -396)"/><path d="M252.7,459.65H191a2.27,2.27,0,0,1,0-4.54h59.45v-9.56a1.74,1.74,0,0,0-1.74-1.74H190.94a2.27,2.27,0,0,1,0-4.54h57.75a6.29,6.29,0,0,1,6.28,6.28v11.83A2.27,2.27,0,0,1,252.7,459.65Z" transform="translate(-63.16 -396)"/><path d="M190.37,420.53H86.93a2.27,2.27,0,0,1-2.27-2.27V406.44a6.29,6.29,0,0,1,6.28-6.29h95.41a6.29,6.29,0,0,1,6.29,6.29v11.82A2.27,2.27,0,0,1,190.37,420.53ZM89.2,416h98.89v-9.55a1.74,1.74,0,0,0-1.74-1.74H90.94a1.74,1.74,0,0,0-1.74,1.74Z" transform="translate(-63.16 -396)"/></svg>