<svg id="Layer_1" data-name="Layer 1" xmlns="http://www.w3.org/2000/svg" viewBox="0 0 279.97 252.05"><defs><style>.cls-1{fill:#ffd99c;}.cls-2{fill:#edf4fc;}.cls-3{fill:#4d0000;}.cls-4{fill:#ff7a7a;}.cls-5{fill:#fff;}</style></defs><title>projects1</title><path class="cls-1" d="M8.79,250.49c10.24,35,39.76,106.39,89.64,100s30.49-70.94,76.28-79.78c20.16-3.89,33.83,31,54,29.92,26-1.4,39.27-27.16,46.54-48.81,15.42-45.92-7.67-123.78-61.71-137.26-47.16-11.77-52.68,45.85-93.69,29.11-23-9.4-20.74-37.5-48.81-43.16C-13.85,83.34-4.84,203.92,8.79,250.49Z" transform="translate(0 -98.83)"/><path class="cls-2" d="M189.54,199.32v90.9a4,4,0,0,1-4,4h-37.1v35.1a4,4,0,0,0,4,4h95.42a4,4,0,0,0,4-4v-130Z" transform="translate(0 -98.83)"/><path class="cls-3" d="M247.86,183.49H189.54v15.83h62.33V187.5A4,4,0,0,0,247.86,183.49Z" transform="translate(0 -98.83)"/><path class="cls-4" d="M239.61,302.46H160.69a2.34,2.34,0,0,0-2.34,2.34V321a2.35,2.35,0,0,0,2.34,2.35h78.92A2.34,2.34,0,0,0,242,321V304.8A2.34,2.34,0,0,0,239.61,302.46Z" transform="translate(0 -98.83)"/><path class="cls-4" d="M239.61,272.16H189.54v18.07a4,4,0,0,1-1.18,2.84h51.25a2.34,2.34,0,0,0,2.34-2.35V274.51A2.35,2.35,0,0,0,239.61,272.16Z" transform="translate(0 -98.83)"/><path class="cls-4" d="M239.61,241.87H189.54v20.9h50.07a2.34,2.34,0,0,0,2.34-2.34V244.21A2.34,2.34,0,0,0,239.61,241.87Z" transform="translate(0 -98.83)"/><path class="cls-4" d="M239.61,211.58H189.54v20.9h50.07a2.34,2.34,0,0,0,2.34-2.34V213.92a2.34,2.34,0,0,0-2.34-2.34Z" transform="translate(0 -98.83)"/><path class="cls-5" d="M127.2,160.21v90.9a4,4,0,0,1-4,4H86.1v35.11a4,4,0,0,0,4,4h95.41a4,4,0,0,0,4-4v-130Z" transform="translate(0 -98.83)"/><path class="cls-3" d="M179.17,302.46H160.69a2.34,2.34,0,0,0-2.34,2.34V321a2.35,2.35,0,0,0,2.34,2.35h18.48Z" transform="translate(0 -98.83)"/><path class="cls-4" d="M23.77,121.09v130a4,4,0,0,0,4,4h95.41a4,4,0,0,0,4-4v-130Z" transform="translate(0 -98.83)"/><path class="cls-3" d="M185.53,144.37H127.21v15.84h62.33V148.38a4,4,0,0,0-4-4Z" transform="translate(0 -98.83)"/><path class="cls-4" d="M102.07,272.48h19.69a2,2,0,0,0,2-2V255.06a3.19,3.19,0,0,1-.54.06H100.1v15.39a2,2,0,0,0,2,2Z" transform="translate(0 -98.83)"/><path class="cls-5" d="M37.52,181.85h75.93a3.07,3.07,0,0,0,3.07-3.07v-8.31a3.07,3.07,0,0,0-3.07-3.07H37.52a3.06,3.06,0,0,0-3.06,3.07v8.31A3.07,3.07,0,0,0,37.52,181.85Z" transform="translate(0 -98.83)"/><path class="cls-5" d="M113.45,191H37.52a3.06,3.06,0,0,0-3.06,3.06v8.32a3.07,3.07,0,0,0,3.06,3.07h75.93a3.08,3.08,0,0,0,3.07-3.07v-8.32A3.07,3.07,0,0,0,113.45,191Z" transform="translate(0 -98.83)"/><path class="cls-3" d="M83.46,215.75H67.51a6.46,6.46,0,0,0,0,12.91H83.46a6.46,6.46,0,1,0,0-12.91Z" transform="translate(0 -98.83)"/><path class="cls-3" d="M51,191H37.52a3.06,3.06,0,0,0-3.06,3.06v8.32a3.07,3.07,0,0,0,3.06,3.07H51Z" transform="translate(0 -98.83)"/><path class="cls-3" d="M51,167.4H37.52a3.06,3.06,0,0,0-3.06,3.07v8.31a3.07,3.07,0,0,0,3.06,3.07H51Z" transform="translate(0 -98.83)"/><path class="cls-3" d="M123.19,105.25H27.78a4,4,0,0,0-4,4v11.82H127.2V109.27A4,4,0,0,0,123.19,105.25Z" transform="translate(0 -98.83)"/><path class="cls-3" d="M40.73,105.25H27.78a4,4,0,0,0-4,4v11.82h17Z" transform="translate(0 -98.83)"/><path class="cls-3" d="M247.86,335.63H152.44a6.29,6.29,0,0,1-6.28-6.29V294.87a2.27,2.27,0,1,1,4.54,0v34.47a1.74,1.74,0,0,0,1.74,1.74h95.42a1.74,1.74,0,0,0,1.74-1.74v-130a2.27,2.27,0,0,1,4.54,0v130A6.29,6.29,0,0,1,247.86,335.63Z" transform="translate(0 -98.83)"/><path class="cls-5" d="M100.44,115.44H51.29a2.27,2.27,0,0,1,0-4.54h49.15a2.27,2.27,0,0,1,0,4.54Z" transform="translate(0 -98.83)"/><path class="cls-5" d="M118.37,115.44h-8.2a2.27,2.27,0,1,1,0-4.54h8.2a2.27,2.27,0,1,1,0,4.54Z" transform="translate(0 -98.83)"/><path class="cls-5" d="M162.77,154.56H128.16a2.27,2.27,0,1,1,0-4.54h34.61a2.27,2.27,0,0,1,0,4.54Z" transform="translate(0 -98.83)"/><path class="cls-5" d="M180.71,154.56H172.5a2.27,2.27,0,1,1,0-4.54h8.21a2.27,2.27,0,1,1,0,4.54Z" transform="translate(0 -98.83)"/><path class="cls-5" d="M225.1,193.68H190.5a2.28,2.28,0,1,1,0-4.55h34.6a2.28,2.28,0,0,1,0,4.55Z" transform="translate(0 -98.83)"/><path class="cls-5" d="M243,193.68h-8.21a2.28,2.28,0,0,1,0-4.55H243a2.28,2.28,0,0,1,0,4.55Z" transform="translate(0 -98.83)"/><path d="M177.58,184.13h-41a2.27,2.27,0,0,1,0-4.54h41a2.27,2.27,0,0,1,0,4.54Z" transform="translate(0 -98.83)"/><path d="M177.58,193.53h-41a2.27,2.27,0,1,1,0-4.54h41a2.27,2.27,0,0,1,0,4.54Z" transform="translate(0 -98.83)"/><path d="M177.58,202.94h-41a2.28,2.28,0,0,1,0-4.55h41a2.28,2.28,0,0,1,0,4.55Z" transform="translate(0 -98.83)"/><path d="M177.58,219.57h-41a2.27,2.27,0,0,1,0-4.54h41a2.27,2.27,0,0,1,0,4.54Z" transform="translate(0 -98.83)"/><path d="M177.58,229h-41a2.28,2.28,0,0,1,0-4.55h41a2.28,2.28,0,0,1,0,4.55Z" transform="translate(0 -98.83)"/><path d="M177.58,238.38h-41a2.28,2.28,0,0,1,0-4.55h41a2.28,2.28,0,0,1,0,4.55Z" transform="translate(0 -98.83)"/><path d="M177.58,253.2h-41a2.28,2.28,0,0,1,0-4.55h41a2.28,2.28,0,0,1,0,4.55Z" transform="translate(0 -98.83)"/><path d="M177.58,262.6h-41a2.27,2.27,0,1,1,0-4.54h41a2.27,2.27,0,1,1,0,4.54Z" transform="translate(0 -98.83)"/><path d="M177.58,272h-41a2.27,2.27,0,0,1,0-4.54h41a2.27,2.27,0,0,1,0,4.54Z" transform="translate(0 -98.83)"/><path d="M88.9,150.5H62.07a2.27,2.27,0,1,1,0-4.54H88.9a2.27,2.27,0,1,1,0,4.54Z" transform="translate(0 -98.83)"/><path class="cls-3" d="M251.87,201.6H190.1a2.28,2.28,0,0,1,0-4.55h59.5V187.5a1.74,1.74,0,0,0-1.74-1.74H190.27a2.27,2.27,0,0,1,0-4.54h57.59a6.29,6.29,0,0,1,6.28,6.28v11.82A2.28,2.28,0,0,1,251.87,201.6Z" transform="translate(0 -98.83)"/><path class="cls-3" d="M185.53,296.51H90.11a6.29,6.29,0,0,1-6.28-6.29V256.11a2.27,2.27,0,0,1,4.54,0v34.11A1.74,1.74,0,0,0,90.11,292h95.41a1.74,1.74,0,0,0,1.74-1.74v-130a2.28,2.28,0,1,1,4.55,0v130A6.29,6.29,0,0,1,185.53,296.51Z" transform="translate(0 -98.83)"/><path class="cls-3" d="M123.19,257.39H27.78a6.28,6.28,0,0,1-6.28-6.28v-130a2.27,2.27,0,1,1,4.54,0v130a1.74,1.74,0,0,0,1.74,1.74h95.41a1.74,1.74,0,0,0,1.74-1.74v-130a2.28,2.28,0,0,1,4.55,0v130A6.29,6.29,0,0,1,123.19,257.39Z" transform="translate(0 -98.83)"/><path class="cls-3" d="M189.54,162.48H127.82a2.28,2.28,0,0,1,0-4.55h59.45v-9.55a1.75,1.75,0,0,0-1.74-1.74H127.78a2.27,2.27,0,0,1,0-4.54h57.75a6.29,6.29,0,0,1,6.28,6.28v11.83A2.27,2.27,0,0,1,189.54,162.48Z" transform="translate(0 -98.83)"/><path class="cls-3" d="M127.2,123.36H23.77a2.27,2.27,0,0,1-2.27-2.27V109.27A6.29,6.29,0,0,1,27.78,103h95.41a6.29,6.29,0,0,1,6.29,6.29v11.82A2.28,2.28,0,0,1,127.2,123.36ZM26,118.82h98.89v-9.55a1.74,1.74,0,0,0-1.74-1.74H27.78A1.74,1.74,0,0,0,26,109.27Z" transform="translate(0 -98.83)"/></svg>