<svg xmlns="http://www.w3.org/2000/svg" width="173.805" height="156.265" viewBox="0 0 173.805 156.265">
  <g id="react" transform="translate(-0.754 -0.785)">
    <path id="Path_59" data-name="Path 59" d="M.754,78.636c0,13.126,12.817,25.379,33.024,32.286-4.035,20.314-.723,36.687,10.34,43.067,11.37,6.558,28.31,2.019,44.389-12.036,15.673,13.487,31.512,18.8,42.565,12.4,11.36-6.576,14.815-24.06,10.668-45.008,21.047-6.958,32.82-17.406,32.82-30.705,0-12.821-12.841-23.913-32.775-30.776,4.464-21.814.682-37.79-10.839-44.433-11.107-6.4-27.131-.822-43.034,13.017C71.366,1.755,55.5-2.73,43.992,3.932,32.9,10.355,29.73,27.027,33.778,47.716,14.253,54.523.754,65.867.754,78.636Z" transform="translate(0 0)" fill="#fff"/>
    <path id="Path_60" data-name="Path 60" d="M142.153,59.026q-2.464-.845-4.969-1.566.415-1.687.768-3.389c3.761-18.258,1.3-32.967-7.1-37.809-8.052-4.644-21.221.2-34.521,11.772q-1.966,1.715-3.843,3.527-1.257-1.2-2.558-2.362C76,16.822,62.023,11.608,53.634,16.464c-8.044,4.657-10.427,18.485-7.041,35.788q.505,2.57,1.141,5.112c-1.977.561-3.886,1.16-5.713,1.8C25.68,64.858,15.243,73.788,15.243,83.05c0,9.566,11.2,19.161,28.225,24.979q2.07.7,4.174,1.3-.683,2.738-1.213,5.511c-3.228,17-.707,30.5,7.316,35.131,8.287,4.778,22.2-.133,35.739-11.972q1.606-1.4,3.221-2.969,2.033,1.961,4.172,3.807c13.119,11.288,26.074,15.847,34.091,11.206,8.279-4.793,10.969-19.3,7.476-36.941q-.4-2.022-.926-4.126,1.465-.432,2.87-.9c17.7-5.862,29.208-15.341,29.208-25.035,0-9.3-10.773-18.285-27.443-24.024Z" transform="translate(-4.591 -4.351)" fill="#53c1de"/>
    <path id="Path_61" data-name="Path 61" d="M141.374,104.877c-.844.279-1.71.549-2.592.811a154.764,154.764,0,0,0-7.816-19.554,154.7,154.7,0,0,0,7.512-19.269c1.579.458,3.112.939,4.588,1.448,14.284,4.916,23,12.187,23,17.788,0,5.967-9.41,13.714-24.688,18.776Zm-6.339,12.562c1.545,7.8,1.765,14.857.742,20.372-.919,4.955-2.768,8.259-5.054,9.582-4.864,2.816-15.268-.844-26.486-10.5q-1.929-1.66-3.881-3.539a154.954,154.954,0,0,0,12.938-16.429,153.928,153.928,0,0,0,20.905-3.222q.471,1.906.835,3.734Zm-64.11,29.468c-4.752,1.678-8.538,1.726-10.825.407-4.869-2.808-6.893-13.649-4.132-28.189q.492-2.578,1.127-5.125a155.054,155.054,0,0,0,20.8,3.011,160.456,160.456,0,0,0,13.25,16.37q-1.437,1.39-2.941,2.708c-5.989,5.235-11.99,8.949-17.279,10.817ZM48.659,104.841c-7.527-2.573-13.742-5.916-18-9.564C26.828,92,24.9,88.743,24.9,86.1c0-5.62,8.38-12.789,22.356-17.662q2.631-.913,5.313-1.672a158.141,158.141,0,0,0,7.523,19.494,160.543,160.543,0,0,0-7.617,19.771q-1.92-.549-3.81-1.193Zm7.464-50.8c-2.9-14.826-.975-26.009,3.873-28.815,5.164-2.989,16.583,1.273,28.618,11.959.769.683,1.542,1.4,2.316,2.138A158.015,158.015,0,0,0,77.781,55.591a161.119,161.119,0,0,0-20.6,3.2q-.59-2.364-1.061-4.756ZM122.7,70.478q-2.263-3.91-4.694-7.719c4.925.622,9.644,1.448,14.074,2.46a140.661,140.661,0,0,1-4.94,13.291q-2.14-4.06-4.44-8.032ZM95.552,44.032A141.02,141.02,0,0,1,104.636,55q-9.116-.431-18.243,0c3-3.955,6.071-7.628,9.16-10.961ZM68.226,70.523q-2.271,3.94-4.357,7.982c-1.92-4.554-3.563-9.032-4.9-13.356,4.4-.986,9.1-1.791,13.994-2.4q-2.457,3.832-4.732,7.777Zm4.873,39.4a140.4,140.4,0,0,1-14.225-2.287c1.363-4.4,3.042-8.975,5-13.627q2.094,4.044,4.376,7.987,2.328,4.021,4.846,7.927Zm22.636,18.71c-3.125-3.373-6.242-7.1-9.287-11.114q4.433.174,9.031.175,4.72,0,9.318-.207A140.225,140.225,0,0,1,95.735,128.637Zm31.472-34.861a140.036,140.036,0,0,1,5.183,13.578,139.941,139.941,0,0,1-14.4,2.454q2.447-3.88,4.739-7.854,2.329-4.039,4.476-8.178ZM117.019,98.66q-3.507,6.093-7.4,11.948c-4.58.327-9.312.5-14.135.5-4.8,0-9.475-.15-13.975-.441q-4-5.838-7.544-11.966-3.528-6.091-6.585-12.437,3.048-6.343,6.565-12.444h0q3.515-6.1,7.484-11.915c4.591-.347,9.3-.529,14.055-.529,4.779,0,9.492.183,14.081.533q3.927,5.8,7.437,11.875,3.528,6.083,6.654,12.385-3.093,6.363-6.632,12.494Zm13.6-73.634c5.168,2.981,7.179,15,3.931,30.766q-.319,1.54-.694,3.069A157.963,157.963,0,0,0,113.22,55.6a154.9,154.9,0,0,0-13.048-16.284q1.734-1.672,3.549-3.256c11.4-9.917,22.046-13.833,26.9-11.034Z" transform="translate(-7.65 -7.402)" fill="#fff"/>
    <path id="Path_62" data-name="Path 62" d="M121.827,94.665a13.784,13.784,0,1,1-13.783,13.783,13.783,13.783,0,0,1,13.783-13.783" transform="translate(-33.999 -29.749)" fill="#53c1de"/>
  </g>
</svg>
