<svg id="Layer_1" data-name="Layer 1" xmlns="http://www.w3.org/2000/svg" viewBox="0 0 489.64 64.59"><defs><style>.cls-1{fill:#fec86e;}.cls-2{fill:#f4f4f4;}</style></defs><title>RomaxRajeev</title><path class="cls-1" d="M82.46,270v32.49l32.09,32.1H146.6l-16-16.05L147,302V270Zm22.21,22.66h19.71l-9.85,9.86Z" transform="translate(-82.46 -269.97)"/><polygon class="cls-2" points="18.02 64.59 0 64.59 0 46.57 9.01 55.58 18.02 64.59"/><path class="cls-2" d="M220.82,293.92q0,9-7.09,11.56l9.43,13.33H212.93l-8.26-11.89h-5.76v11.89H190.6V281.55h14.12q8.68,0,12.39,2.93T220.82,293.92Zm-10,4.42a5.63,5.63,0,0,0,1.54-4.4c0-2-.53-3.38-1.6-4.13s-2.93-1.11-5.59-1.11h-6.24v11H205Q209.25,299.73,210.8,298.34Z" transform="translate(-82.46 -269.97)"/><path class="cls-2" d="M256.15,304.47a14.17,14.17,0,0,1-4.32,10.5,15.93,15.93,0,0,1-21.69,0,15,15,0,0,1,0-21,15.85,15.85,0,0,1,21.69,0A14.28,14.28,0,0,1,256.15,304.47Zm-22.28,0a8.22,8.22,0,0,0,2,5.73,7,7,0,0,0,10.24,0,8.21,8.21,0,0,0,2-5.73,8.36,8.36,0,0,0-2-5.76,7,7,0,0,0-10.24,0A8.36,8.36,0,0,0,233.87,304.47Z" transform="translate(-82.46 -269.97)"/><path class="cls-2" d="M288.4,303.35v15.46h-8V303.14a9.43,9.43,0,0,0-1-5,3.69,3.69,0,0,0-3.36-1.6,5.74,5.74,0,0,0-4.1,1.73,6.79,6.79,0,0,0-1.79,5.09v15.46h-8V290.13h8v3.26a9.9,9.9,0,0,1,7.57-3.74,8.25,8.25,0,0,1,4.93,1.6,10.56,10.56,0,0,1,3.33,3.89,11.29,11.29,0,0,1,4.45-4.05,12.2,12.2,0,0,1,5.62-1.44,11.19,11.19,0,0,1,8.16,3c2.06,2,3.09,4.91,3.09,8.71v17.43h-8V303.14q0-6.61-4.85-6.61a5.76,5.76,0,0,0-4.16,1.73A6.85,6.85,0,0,0,288.4,303.35Z" transform="translate(-82.46 -269.97)"/><path class="cls-2" d="M338.81,318.81H331.3v-3.47a9.4,9.4,0,0,1-7.65,3.89A11.41,11.41,0,0,1,316,316.6a8.8,8.8,0,0,1-3.09-7,7.45,7.45,0,0,1,3.2-6.58q3.19-2.19,8.74-2.19h6v-.16q0-4.58-4.85-4.58a13.15,13.15,0,0,0-4.4.83,14.11,14.11,0,0,0-3.91,2.05l-3.58-5.17a21.38,21.38,0,0,1,12.9-4.11,13.35,13.35,0,0,1,8.53,2.62q3.3,2.61,3.3,8.26Zm-8-10.93V306.5h-5q-4.8,0-4.8,3a2.73,2.73,0,0,0,1.15,2.37,5.52,5.52,0,0,0,3.27.83,5.84,5.84,0,0,0,3.76-1.31A4.26,4.26,0,0,0,330.77,307.88Z" transform="translate(-82.46 -269.97)"/><path class="cls-2" d="M353.1,290.13l4.9,7.68,5.06-7.68h9.38l-9.86,14,10.24,14.66h-9.54l-5.6-7.89-5.44,7.89H343l10-14.61-9.48-14.07Z" transform="translate(-82.46 -269.97)"/><path class="cls-2" d="M422.38,293.92q0,9-7.09,11.56l9.44,13.33H414.49l-8.26-11.89h-5.75v11.89h-8.32V281.55h14.13q8.68,0,12.39,2.93T422.38,293.92Zm-10,4.42a5.63,5.63,0,0,0,1.55-4.4c0-2-.53-3.38-1.6-4.13s-2.93-1.11-5.6-1.11h-6.23v11h6.07C409.4,299.73,411.33,299.27,412.36,298.34Z" transform="translate(-82.46 -269.97)"/><path class="cls-2" d="M453.77,318.81h-7.51v-3.47a9.4,9.4,0,0,1-7.65,3.89A11.41,11.41,0,0,1,431,316.6a8.8,8.8,0,0,1-3.09-7,7.45,7.45,0,0,1,3.2-6.58q3.19-2.19,8.74-2.19h6v-.16q0-4.58-4.85-4.58a13.15,13.15,0,0,0-4.4.83,14.11,14.11,0,0,0-3.91,2.05L429,293.76a21.38,21.38,0,0,1,12.9-4.11,13.35,13.35,0,0,1,8.53,2.62q3.3,2.61,3.3,8.26Zm-8-10.93V306.5h-5q-4.8,0-4.8,3a2.73,2.73,0,0,0,1.15,2.37,5.52,5.52,0,0,0,3.27.83,5.84,5.84,0,0,0,3.76-1.31A4.26,4.26,0,0,0,445.73,307.88Z" transform="translate(-82.46 -269.97)"/><path class="cls-2" d="M463.79,319.34V290.08h8V320A9.55,9.55,0,0,1,462,330.11a11.57,11.57,0,0,1-7.87-3.41l3.68-5.92a4.68,4.68,0,0,0,3.57,1.87,2.2,2.2,0,0,0,1.76-.83A3.8,3.8,0,0,0,463.79,319.34Zm.67-32.86a4.76,4.76,0,0,1,0-6.66,4.69,4.69,0,0,1,8,3.33,4.71,4.71,0,0,1-8,3.33Z" transform="translate(-82.46 -269.97)"/><path class="cls-2" d="M504.19,314.65a16,16,0,0,1-11.38,4.58,15.1,15.1,0,0,1-10.79-4q-4.26-4-4.26-10.79t4.34-10.77a14.69,14.69,0,0,1,10.26-4,14.87,14.87,0,0,1,10.05,3.58,12.28,12.28,0,0,1,4.13,9.8v4.27H485.65a5.64,5.64,0,0,0,2.45,3.83,7.81,7.81,0,0,0,4.69,1.5,9.24,9.24,0,0,0,6.93-2.83Zm-7.67-17a6.09,6.09,0,0,0-4-1.39,7.18,7.18,0,0,0-4.34,1.44,5.52,5.52,0,0,0-2.29,3.89h12.58A5.68,5.68,0,0,0,496.52,297.65Z" transform="translate(-82.46 -269.97)"/><path class="cls-2" d="M537.13,314.65a16,16,0,0,1-11.38,4.58,15.1,15.1,0,0,1-10.79-4q-4.26-4-4.27-10.79T515,293.65a14.65,14.65,0,0,1,10.26-4,14.83,14.83,0,0,1,10,3.58q4.14,3.57,4.13,9.8v4.27H518.58a5.71,5.71,0,0,0,2.45,3.83,7.83,7.83,0,0,0,4.69,1.5,9.21,9.21,0,0,0,6.93-2.83Zm-7.67-17a6.11,6.11,0,0,0-4-1.39,7.18,7.18,0,0,0-4.34,1.44,5.48,5.48,0,0,0-2.29,3.89h12.57A5.64,5.64,0,0,0,529.46,297.65Z" transform="translate(-82.46 -269.97)"/><path class="cls-2" d="M552.53,318.81l-11.35-28.73h8.31l7.15,18.07,7.14-18.07h8.31l-11.35,28.73Z" transform="translate(-82.46 -269.97)"/></svg>