<svg xmlns="http://www.w3.org/2000/svg" width="208.471" height="156.265" viewBox="0 0 208.471 156.265">
  <path id="sass" d="M179.346,89.972a42.949,42.949,0,0,0-18.894,4.4c-1.955-3.868-3.909-7.249-4.235-9.773-.366-2.932-.814-4.724-.366-8.226s2.484-8.47,2.484-8.877c-.041-.366-.448-2.158-4.642-2.2s-7.818.814-8.226,1.914a46.77,46.77,0,0,0-1.751,6.23c-.733,3.828-8.388,17.388-12.746,24.514-1.425-2.769-2.647-5.212-2.892-7.167-.366-2.931-.814-4.724-.366-8.225s2.484-8.47,2.484-8.877c-.041-.366-.448-2.158-4.642-2.2s-7.818.814-8.226,1.914-.855,3.706-1.751,6.23c-.856,2.525-11.036,25.165-13.683,31.07-1.344,3.013-2.524,5.416-3.38,7.045s-.041.122-.122.285c-.733,1.384-1.14,2.158-1.14,2.158v.041c-.57,1.018-1.181,1.995-1.466,1.995-.2,0-.611-2.728.081-6.474,1.507-7.859,5.172-20.116,5.131-20.564,0-.2.692-2.362-2.362-3.461a3.711,3.711,0,0,0-4.276.733c-.244,0-.448.652-.448.652s3.3-13.8-6.312-13.8c-6.027,0-14.334,6.556-18.446,12.542-2.606,1.425-8.144,4.438-14.008,7.655-2.24,1.222-4.561,2.525-6.76,3.706l-.448-.489C36.295,90.3,14.754,81.5,15.65,64.807c.326-6.067,2.443-22.071,41.373-41.454,31.884-15.881,57.416-11.524,61.854-1.832,6.312,13.845-13.641,39.58-46.788,43.286-12.623,1.425-19.261-3.461-20.93-5.294-1.751-1.914-2-2-2.647-1.629-1.059.57-.407,2.28,0,3.3.977,2.565,5.049,7.126,11.972,9.406,6.067,2,20.89,3.095,38.807-3.828,20.075-7.778,35.753-29.36,31.151-47.4C125.758,1,95.3-5.029,66.51,5.192,49.366,11.3,30.8,20.829,17.441,33.33,1.56,48.152-.964,61.1.094,66.476,3.8,85.656,30.228,98.157,40.815,107.4c-.529.285-1.018.57-1.466.814-5.294,2.606-25.45,13.153-30.5,24.31-5.7,12.623.9,21.7,5.294,22.926,13.6,3.787,27.527-3.013,35.06-14.211,7.492-11.2,6.6-25.735,3.135-32.373l-.123-.244,4.153-2.443c2.688-1.588,5.335-3.054,7.655-4.317A50.7,50.7,0,0,0,61.3,115.707c-.57,7.167,2.362,16.451,6.23,20.116a6.893,6.893,0,0,0,5.009,1.629c4.479,0,6.515-3.706,8.755-8.144,2.769-5.416,5.212-11.687,5.212-11.687S83.449,134.6,91.8,134.6c3.054,0,6.108-3.95,7.493-5.986v.041s.081-.122.244-.407q.256-.379.489-.773v-.081c1.222-2.117,3.95-6.963,8.022-14.985,5.253-10.343,10.3-23.292,10.3-23.292a74.325,74.325,0,0,0,2,8.388c.9,3.1,2.85,6.475,4.357,9.773-1.222,1.71-1.955,2.688-1.955,2.688l.041.041c-.977,1.3-2.077,2.688-3.217,4.072-4.154,4.968-9.121,10.628-9.773,12.257-.774,1.913-.611,3.339.9,4.479,1.1.814,3.054.977,5.131.814a22.856,22.856,0,0,0,7.655-1.751,26.513,26.513,0,0,0,6.6-3.461,14.686,14.686,0,0,0,6.312-12.989,26.118,26.118,0,0,0-2.4-9.162c.366-.529.733-1.059,1.1-1.629a171.893,171.893,0,0,0,11.4-19.749,74.324,74.324,0,0,0,2,8.388,58.809,58.809,0,0,0,3.706,8.389c-6.027,4.927-9.814,10.628-11.117,14.374-2.4,6.923-.529,10.058,3.013,10.791,1.588.326,3.868-.407,5.578-1.14a25.279,25.279,0,0,0,7.045-3.624c4.072-3.013,7.981-7.208,7.778-12.868a24.668,24.668,0,0,0-1.751-7.615c5.131-2.117,11.768-3.339,20.2-2.321,18.121,2.117,21.7,13.438,21.012,18.161s-4.479,7.33-5.742,8.144c-1.262.774-1.67,1.059-1.547,1.629.163.856.733.814,1.832.652,1.507-.245,9.529-3.868,9.854-12.582.489-11.2-10.139-23.416-28.993-23.294ZM39.593,137.086c-5.986,6.556-14.415,9.04-18,6.923-3.868-2.24-2.362-11.89,5.009-18.854a95.812,95.812,0,0,1,14.13-10.547c.855-.529,2.158-1.3,3.706-2.24a4.343,4.343,0,0,1,.407-.244c.285-.163.611-.366.937-.57a25.974,25.974,0,0,1-6.19,25.532Zm43.775-29.767c-2.077,5.09-6.475,18.161-9.121,17.428-2.281-.611-3.665-10.506-.448-20.279A45.271,45.271,0,0,1,80.924,91.4c3.3-3.665,6.882-4.886,7.778-3.38C89.761,89.972,84.671,104.143,83.368,107.319Zm36.119,17.266c-.9.448-1.71.774-2.077.53-.285-.163.366-.774.366-.774s4.52-4.846,6.312-7.085c1.018-1.3,2.24-2.809,3.543-4.52v.489c0,5.863-5.619,9.773-8.144,11.361Zm27.852-6.352c-.652-.489-.57-2,1.629-6.719a25.177,25.177,0,0,1,6.19-7.981,10.073,10.073,0,0,1,.611,3.5C155.728,114.364,150.516,117.092,147.34,118.232Z" transform="translate(0.116 -0.241)" fill="#cf649a"/>
</svg>
