<svg id="Layer_1" data-name="Layer 1" xmlns="http://www.w3.org/2000/svg" viewBox="0 0 279.97 252.05"><defs><style>.cls-1{fill:#ffd99c;}.cls-2{fill:#2626bc;opacity:0.1;isolation:isolate;}.cls-3{fill:#fff;}.cls-4{fill:#ff7a7a;}.cls-5{fill:#4d0000;}</style></defs><title>uiux1</title><path class="cls-1" d="M42.23,184.49c10.24,35,39.76,106.39,89.63,100,50-6.42,30.49-70.93,76.29-79.77,20.16-3.9,33.82,31,54,29.91,26-1.4,39.27-27.16,46.54-48.81C324.14,139.88,301.05,62,247,48.54c-47.16-11.77-52.67,45.85-93.68,29.12-23-9.41-20.74-37.5-48.81-43.17C19.59,17.34,28.6,137.92,42.23,184.49Z" transform="translate(-33.44 -32.83)"/><path class="cls-2" d="M282.5,77.85H64.35a8.21,8.21,0,0,0-8.2,8.21V257.9a8.21,8.21,0,0,0,8.2,8.21h63.8V279.2a5.47,5.47,0,0,0,5.47,5.47h79.61a5.47,5.47,0,0,0,5.47-5.47V266.11h63.8a8.21,8.21,0,0,0,8.2-8.21V86.06a8.21,8.21,0,0,0-8.2-8.21Z" transform="translate(-33.44 -32.83)"/><path class="cls-3" d="M282.5,253H64.35a8.2,8.2,0,0,1-8.2-8.2V72.93a8.2,8.2,0,0,1,8.2-8.2H282.5a8.2,8.2,0,0,1,8.2,8.2V244.78A8.2,8.2,0,0,1,282.5,253Z" transform="translate(-33.44 -32.83)"/><path class="cls-3" d="M267.91,253h-189V140.27a5.47,5.47,0,0,1,5.47-5.47h178a5.47,5.47,0,0,1,5.47,5.47Z" transform="translate(-33.44 -32.83)"/><path class="cls-4" d="M78.94,221h189v32h-189Z" transform="translate(-33.44 -32.83)"/><circle class="cls-4" cx="194.09" cy="152.37" r="18.4"/><path class="cls-5" d="M236.61,185.83A9.09,9.09,0,1,0,221,192.18a9.08,9.08,0,0,0-2.6,6.35v2.68a18.47,18.47,0,0,0,5.47,2v-4.72a3.62,3.62,0,1,1,7.23,0v4.72a18.47,18.47,0,0,0,5.47-2v-2.68a9,9,0,0,0-2.6-6.35A9,9,0,0,0,236.61,185.83Zm-9.09,3.62a3.62,3.62,0,1,1,3.62-3.62A3.62,3.62,0,0,1,227.52,189.45Z" transform="translate(-33.44 -32.83)"/><circle class="cls-4" cx="85.89" cy="152.37" r="18.4"/><path class="cls-5" d="M128.41,185.83a9.09,9.09,0,1,0-15.57,6.35,9.08,9.08,0,0,0-2.6,6.35v2.68a18.47,18.47,0,0,0,5.47,2v-4.72a3.62,3.62,0,1,1,7.23,0v4.72a18.36,18.36,0,0,0,5.47-2v-2.68a9,9,0,0,0-2.6-6.35A9,9,0,0,0,128.41,185.83Zm-9.09,3.62a3.62,3.62,0,1,1,3.62-3.62A3.62,3.62,0,0,1,119.32,189.45Z" transform="translate(-33.44 -32.83)"/><path class="cls-4" d="M267.91,153.68h-189V140.27a5.47,5.47,0,0,1,5.47-5.47h178a5.47,5.47,0,0,1,5.47,5.47Z" transform="translate(-33.44 -32.83)"/><path class="cls-4" d="M290.7,102.63V72.93a8.2,8.2,0,0,0-8.2-8.2H64.35a8.2,8.2,0,0,0-8.2,8.2v29.7Z" transform="translate(-33.44 -32.83)"/><circle class="cls-3" cx="46.82" cy="52.07" r="5.96"/><circle class="cls-3" cx="65.85" cy="52.07" r="5.96"/><circle class="cls-3" cx="84.88" cy="52.07" r="5.96"/><path class="cls-3" d="M269.82,91.6H195.36V78.21h74.46a2.73,2.73,0,0,1,2.73,2.73v7.93a2.73,2.73,0,0,1-2.73,2.73Z" transform="translate(-33.44 -32.83)"/><path class="cls-5" d="M195.73,78.38a7.41,7.41,0,1,0-2.31,12l2.38,2.38a2.74,2.74,0,1,0,3.87-3.87l-2.38-2.37A7.43,7.43,0,0,0,195.73,78.38Zm-6.62,3.87a1.94,1.94,0,1,1,0,2.75A1.94,1.94,0,0,1,189.11,82.25Z" transform="translate(-33.44 -32.83)"/><path class="cls-5" d="M267.91,255.72h-189A2.74,2.74,0,0,1,76.21,253V140.27a8.2,8.2,0,0,1,8.2-8.2h178a8.21,8.21,0,0,1,8.2,8.2V253A2.74,2.74,0,0,1,267.91,255.72ZM81.67,250.25H265.18v-110a2.74,2.74,0,0,0-2.74-2.73h-178a2.74,2.74,0,0,0-2.74,2.73Z" transform="translate(-33.44 -32.83)"/><path class="cls-3" d="M213.23,271.55H133.62a5.47,5.47,0,0,1-5.47-5.47V126a5.47,5.47,0,0,1,5.47-5.47h79.61A5.47,5.47,0,0,1,218.7,126v140A5.47,5.47,0,0,1,213.23,271.55Z" transform="translate(-33.44 -32.83)"/><path class="cls-4" d="M128.15,227.22v38.86a5.46,5.46,0,0,0,5.47,5.46h79.61a5.46,5.46,0,0,0,5.47-5.46V227.22Z" transform="translate(-33.44 -32.83)"/><path class="cls-4" d="M218.7,137.79H128.15V126a5.47,5.47,0,0,1,5.47-5.47h79.61A5.47,5.47,0,0,1,218.7,126Z" transform="translate(-33.44 -32.83)"/><path class="cls-5" d="M282.5,62H64.35A11,11,0,0,0,53.41,72.93V244.78a11,11,0,0,0,10.94,10.94h61.07v10.36a8.21,8.21,0,0,0,8.2,8.2h79.61a8.21,8.21,0,0,0,8.2-8.2V255.72H282.5a11,11,0,0,0,10.94-10.94V72.93A11,11,0,0,0,282.5,62ZM216,266.08a2.73,2.73,0,0,1-2.73,2.73H133.62a2.73,2.73,0,0,1-2.73-2.73V126a2.74,2.74,0,0,1,2.73-2.74h79.61A2.74,2.74,0,0,1,216,126Zm72-21.3a5.48,5.48,0,0,1-5.47,5.47H221.43V126a8.21,8.21,0,0,0-8.2-8.21H133.62a8.21,8.21,0,0,0-8.2,8.21V250.25H64.35a5.48,5.48,0,0,1-5.47-5.47V72.93a5.48,5.48,0,0,1,5.47-5.47H282.5A5.48,5.48,0,0,1,288,72.93Z" transform="translate(-33.44 -32.83)"/><circle class="cls-4" cx="139.99" cy="141.14" r="18.4"/><path class="cls-5" d="M182.51,174.6A9.09,9.09,0,1,0,166.94,181a9.08,9.08,0,0,0-2.6,6.35V190a18.47,18.47,0,0,0,5.47,2V187.3a3.62,3.62,0,0,1,7.23,0V192a18.36,18.36,0,0,0,5.47-2V187.3a9,9,0,0,0-2.6-6.35A9,9,0,0,0,182.51,174.6Zm-9.09,3.62A3.62,3.62,0,1,1,177,174.6,3.62,3.62,0,0,1,173.42,178.22Z" transform="translate(-33.44 -32.83)"/><path class="cls-5" d="M189.74,207.68H157.11a2.74,2.74,0,1,1,0-5.47h32.63a2.74,2.74,0,1,1,0,5.47Z" transform="translate(-33.44 -32.83)"/><path class="cls-5" d="M189.74,242.54H157.11a2.74,2.74,0,1,1,0-5.47h32.63a2.74,2.74,0,1,1,0,5.47Z" transform="translate(-33.44 -32.83)"/><path class="cls-5" d="M189.74,253H157.11a2.74,2.74,0,1,1,0-5.47h32.63a2.74,2.74,0,1,1,0,5.47Z" transform="translate(-33.44 -32.83)"/><path class="cls-5" d="M168.42,217.23H157.11a2.74,2.74,0,1,1,0-5.47h11.31a2.74,2.74,0,0,1,0,5.47Z" transform="translate(-33.44 -32.83)"/><path class="cls-5" d="M205.57,149.2h-6.38a2.74,2.74,0,1,1,0-5.47h6.38a2.74,2.74,0,1,1,0,5.47Z" transform="translate(-33.44 -32.83)"/><path class="cls-5" d="M205.57,157.67h-6.38a2.74,2.74,0,1,1,0-5.47h6.38a2.74,2.74,0,1,1,0,5.47Z" transform="translate(-33.44 -32.83)"/><path class="cls-5" d="M144.45,146.47a2.74,2.74,0,1,1-2.74-2.74A2.74,2.74,0,0,1,144.45,146.47Z" transform="translate(-33.44 -32.83)"/></svg>