<svg id="Layer_1" data-name="Layer 1" xmlns="http://www.w3.org/2000/svg" viewBox="0 0 279.97 252.05"><defs><style>.cls-1{fill:#fec86e;}.cls-2{fill:#2626bc;opacity:0.1;isolation:isolate;}.cls-3{fill:#fff;}.cls-4{fill:#ff7a7a;}</style></defs><title>uiux2</title><path class="cls-1" d="M68.33,235.31c10.24,35,39.76,106.39,89.64,100s30.49-70.93,76.28-79.77c20.16-3.9,33.83,31,54,29.91,26-1.4,39.27-27.16,46.54-48.81,15.42-45.92-7.67-123.78-61.71-137.26-47.16-11.77-52.68,45.85-93.68,29.12-23.05-9.41-20.75-37.5-48.82-43.17C45.69,68.16,54.71,188.74,68.33,235.31Z" transform="translate(-59.54 -83.65)"/><path class="cls-2" d="M308.6,128.67H90.45a8.2,8.2,0,0,0-8.2,8.2V308.72a8.2,8.2,0,0,0,8.2,8.2h63.81V330a5.47,5.47,0,0,0,5.47,5.47h79.6A5.47,5.47,0,0,0,244.8,330v-13.1h63.8a8.21,8.21,0,0,0,8.21-8.2V136.87a8.21,8.21,0,0,0-8.21-8.2Z" transform="translate(-59.54 -83.65)"/><path class="cls-3" d="M308.6,303.8H90.45a8.2,8.2,0,0,1-8.2-8.2V123.75a8.2,8.2,0,0,1,8.2-8.2H308.6a8.21,8.21,0,0,1,8.21,8.2V295.6A8.21,8.21,0,0,1,308.6,303.8Z" transform="translate(-59.54 -83.65)"/><path class="cls-3" d="M294,303.8H105V191.09a5.47,5.47,0,0,1,5.47-5.47h178a5.46,5.46,0,0,1,5.46,5.47Z" transform="translate(-59.54 -83.65)"/><path class="cls-4" d="M105,271.78H294v32H105Z" transform="translate(-59.54 -83.65)"/><circle class="cls-4" cx="194.09" cy="152.37" r="18.4"/><path d="M262.72,236.65A9.09,9.09,0,1,0,247.14,243a9.06,9.06,0,0,0-2.6,6.35V252a18.47,18.47,0,0,0,5.47,2v-4.72a3.62,3.62,0,0,1,7.24,0v4.72a18.47,18.47,0,0,0,5.47-2v-2.68a9,9,0,0,0-2.61-6.35A9,9,0,0,0,262.72,236.65Zm-9.09,3.62a3.62,3.62,0,1,1,3.62-3.62A3.63,3.63,0,0,1,253.63,240.27Z" transform="translate(-59.54 -83.65)"/><circle class="cls-4" cx="85.89" cy="152.37" r="18.4"/><path d="M154.52,236.65A9.09,9.09,0,1,0,138.94,243a9.06,9.06,0,0,0-2.6,6.35V252a18.47,18.47,0,0,0,5.47,2v-4.72a3.62,3.62,0,1,1,7.24,0v4.72a18.47,18.47,0,0,0,5.47-2v-2.68a9,9,0,0,0-2.61-6.35A9,9,0,0,0,154.52,236.65Zm-9.09,3.62a3.62,3.62,0,1,1,3.62-3.62A3.63,3.63,0,0,1,145.43,240.27Z" transform="translate(-59.54 -83.65)"/><path class="cls-4" d="M294,204.49H105v-13.4a5.47,5.47,0,0,1,5.47-5.47h178a5.46,5.46,0,0,1,5.46,5.47Z" transform="translate(-59.54 -83.65)"/><path class="cls-4" d="M316.81,153.45v-29.7a8.21,8.21,0,0,0-8.21-8.2H90.45a8.2,8.2,0,0,0-8.2,8.2v29.7Z" transform="translate(-59.54 -83.65)"/><circle class="cls-3" cx="46.82" cy="52.07" r="5.96"/><circle class="cls-3" cx="65.85" cy="52.07" r="5.96"/><circle class="cls-3" cx="84.88" cy="52.07" r="5.96"/><path class="cls-3" d="M295.92,142.42H221.47V129h74.45a2.74,2.74,0,0,1,2.74,2.73v7.93a2.74,2.74,0,0,1-2.74,2.73Z" transform="translate(-59.54 -83.65)"/><path d="M221.83,129.2a7.41,7.41,0,1,0-2.3,12l2.37,2.38a2.74,2.74,0,0,0,3.87-3.87l-2.38-2.37A7.41,7.41,0,0,0,221.83,129.2Zm-6.61,3.87a1.94,1.94,0,1,1,0,2.75A1.94,1.94,0,0,1,215.22,133.07Z" transform="translate(-59.54 -83.65)"/><path d="M294,306.53H105a2.73,2.73,0,0,1-2.73-2.73V191.09a8.21,8.21,0,0,1,8.2-8.2h178a8.21,8.21,0,0,1,8.2,8.2V303.8A2.74,2.74,0,0,1,294,306.53Zm-186.23-5.46h183.5v-110a2.73,2.73,0,0,0-2.73-2.73h-178a2.73,2.73,0,0,0-2.73,2.73Z" transform="translate(-59.54 -83.65)"/><path class="cls-3" d="M239.33,322.36h-79.6a5.46,5.46,0,0,1-5.47-5.46V176.84a5.46,5.46,0,0,1,5.47-5.46h79.6a5.46,5.46,0,0,1,5.47,5.46V316.9A5.46,5.46,0,0,1,239.33,322.36Z" transform="translate(-59.54 -83.65)"/><path class="cls-4" d="M154.26,278V316.9a5.46,5.46,0,0,0,5.47,5.46h79.6a5.46,5.46,0,0,0,5.47-5.46V278Z" transform="translate(-59.54 -83.65)"/><path class="cls-4" d="M244.8,188.61H154.26V176.84a5.46,5.46,0,0,1,5.47-5.46h79.6a5.46,5.46,0,0,1,5.47,5.46Z" transform="translate(-59.54 -83.65)"/><path d="M308.6,112.81H90.45a11,11,0,0,0-10.93,10.94V295.6a10.94,10.94,0,0,0,10.93,10.93h61.07V316.9a8.21,8.21,0,0,0,8.21,8.2h79.6a8.21,8.21,0,0,0,8.2-8.2V306.53H308.6a11,11,0,0,0,10.94-10.93V123.75a11,11,0,0,0-10.94-10.94ZM242.07,316.9a2.74,2.74,0,0,1-2.74,2.73h-79.6A2.74,2.74,0,0,1,157,316.9V176.84a2.74,2.74,0,0,1,2.74-2.73h79.6a2.74,2.74,0,0,1,2.74,2.73Zm72-21.3a5.48,5.48,0,0,1-5.47,5.47H247.53V176.84a8.21,8.21,0,0,0-8.2-8.2h-79.6a8.21,8.21,0,0,0-8.21,8.2V301.07H90.45A5.48,5.48,0,0,1,85,295.6V123.75a5.48,5.48,0,0,1,5.46-5.47H308.6a5.48,5.48,0,0,1,5.47,5.47Z" transform="translate(-59.54 -83.65)"/><circle class="cls-4" cx="139.99" cy="141.14" r="18.4"/><path d="M208.62,225.42A9.09,9.09,0,1,0,193,231.77a9.08,9.08,0,0,0-2.6,6.35v2.68a18.47,18.47,0,0,0,5.47,2v-4.72a3.62,3.62,0,0,1,7.24,0v4.72a18.47,18.47,0,0,0,5.47-2v-2.68a9,9,0,0,0-2.61-6.35A9,9,0,0,0,208.62,225.42ZM199.53,229a3.62,3.62,0,1,1,3.62-3.62A3.63,3.63,0,0,1,199.53,229Z" transform="translate(-59.54 -83.65)"/><path d="M215.85,258.5H183.21a2.74,2.74,0,0,1,0-5.47h32.64a2.74,2.74,0,0,1,0,5.47Z" transform="translate(-59.54 -83.65)"/><path d="M215.85,293.36H183.21a2.74,2.74,0,0,1,0-5.47h32.64a2.74,2.74,0,0,1,0,5.47Z" transform="translate(-59.54 -83.65)"/><path d="M215.85,303.8H183.21a2.74,2.74,0,0,1,0-5.47h32.64a2.74,2.74,0,0,1,0,5.47Z" transform="translate(-59.54 -83.65)"/><path d="M194.52,268.05H183.21a2.74,2.74,0,0,1,0-5.47h11.31a2.74,2.74,0,0,1,0,5.47Z" transform="translate(-59.54 -83.65)"/><path d="M231.68,200h-6.39a2.74,2.74,0,0,1,0-5.47h6.39a2.74,2.74,0,0,1,0,5.47Z" transform="translate(-59.54 -83.65)"/><path d="M231.68,208.49h-6.39a2.74,2.74,0,0,1,0-5.47h6.39a2.74,2.74,0,0,1,0,5.47Z" transform="translate(-59.54 -83.65)"/><path d="M170.55,197.29a2.74,2.74,0,1,1-2.73-2.74A2.73,2.73,0,0,1,170.55,197.29Z" transform="translate(-59.54 -83.65)"/></svg>